<svg width="38" height="38" viewBox="0 0 38 38" fill="none" xmlns="http://www.w3.org/2000/svg">
<circle cx="19" cy="19" r="17.5" fill="#0064B5" stroke="#005397" stroke-width="3"/>
<path fill-rule="evenodd" clip-rule="evenodd" d="M19 13C17.9506 12.9998 16.9195 13.2749 16.0095 13.7977C15.0996 14.3206 14.3428 15.0729 13.8145 15.9797C13.2863 16.8865 13.0051 17.916 12.999 18.9654C12.993 20.0148 13.2622 21.0474 13.78 21.9602C14.13 21.5054 14.5798 21.1372 15.0948 20.884C15.6098 20.6308 16.1761 20.4994 16.75 20.5H21.25C21.8239 20.4994 22.3902 20.6308 22.9052 20.884C23.4202 21.1372 23.8701 21.5054 24.22 21.9602C24.7378 21.0474 25.0071 20.0148 25.001 18.9654C24.995 17.916 24.7138 16.8865 24.1855 15.9797C23.6572 15.0729 22.9004 14.3206 21.9905 13.7977C21.0806 13.2749 20.0494 12.9998 19 13ZM24.9573 23.557C25.96 22.2497 26.5024 20.6476 26.5 19C26.5 14.8578 23.1423 11.5 19 11.5C14.8578 11.5 11.5 14.8578 11.5 19C11.4975 20.6476 12.0399 22.2498 13.0428 23.557L13.039 23.5705L13.3053 23.8802C14.0087 24.7026 14.882 25.3627 15.8652 25.815C16.8483 26.2673 17.9178 26.501 19 26.5C20.5205 26.5028 22.0056 26.0409 23.2563 25.1763C23.7895 24.8079 24.2729 24.3723 24.6948 23.8802L24.961 23.5705L24.9573 23.557ZM19 14.5C18.4033 14.5 17.831 14.7371 17.409 15.159C16.9871 15.581 16.75 16.1533 16.75 16.75C16.75 17.3467 16.9871 17.919 17.409 18.341C17.831 18.7629 18.4033 19 19 19C19.5967 19 20.169 18.7629 20.591 18.341C21.013 17.919 21.25 17.3467 21.25 16.75C21.25 16.1533 21.013 15.581 20.591 15.159C20.169 14.7371 19.5967 14.5 19 14.5Z" fill="white"/>
</svg>
