<svg width="80" height="80" viewBox="0 0 80 80" fill="none" xmlns="http://www.w3.org/2000/svg">
<rect x="1.5" y="1.5" width="77" height="77" rx="11.5" fill="#0064B5" stroke="#005397" stroke-width="3"/>
<mask id="path-2-outside-1_269_2170" maskUnits="userSpaceOnUse" x="16" y="56" width="47" height="11" fill="black">
<rect fill="white" x="16" y="56" width="47" height="11"/>
<path d="M21.75 65L21.81 63.43H20.14L19.65 65H17.74L20.31 57.8H23.61L23.65 65H21.75ZM21.34 59.55L20.55 62.09H21.86L21.97 59.55H21.34ZM29.5263 62.36H26.8663L26.4063 65H24.5963L25.8663 57.8H30.8863L30.6063 59.36H27.3863L27.1363 60.8H29.7963L29.5263 62.36ZM33.6819 57.8L32.4219 65H30.6119L31.8819 57.8H33.6819ZM38.3945 65H33.8345L35.1045 57.8H36.9045L35.9145 63.44H38.6745L38.3945 65ZM42.2659 57.8L41.0059 65H39.1959L40.4659 57.8H42.2659ZM45.9785 65L46.0385 63.43H44.3685L43.8785 65H41.9685L44.5385 57.8H47.8385L47.8785 65H45.9785ZM45.5685 59.55L44.7785 62.09H46.0885L46.1985 59.55H45.5685ZM52.8948 57.8C53.7681 57.8 54.3914 58.02 54.7648 58.46C55.0381 58.7933 55.1748 59.21 55.1748 59.71C55.1748 59.89 55.1581 60.08 55.1248 60.28L54.7348 62.51C54.6014 63.2633 54.2748 63.8667 53.7548 64.32C53.2348 64.7733 52.5614 65 51.7348 65H48.8248L50.0948 57.8H52.8948ZM52.2648 59.36H51.6148L50.9048 63.44H51.8548C52.1681 63.44 52.4114 63.3567 52.5848 63.19C52.7648 63.0167 52.8881 62.7367 52.9548 62.35L53.2448 60.71C53.2714 60.5633 53.2848 60.43 53.2848 60.31C53.2848 59.6767 52.9448 59.36 52.2648 59.36ZM59.4042 57.73C61.0109 57.73 61.8142 58.3867 61.8142 59.7C61.8142 59.92 61.7909 60.1567 61.7442 60.41L61.3942 62.41C61.2342 63.3367 60.8876 64.0233 60.3542 64.47C59.8209 64.9167 59.0709 65.14 58.1042 65.14C57.1376 65.14 56.4642 64.9167 56.0842 64.47C55.8242 64.1633 55.6942 63.74 55.6942 63.2C55.6942 62.96 55.7209 62.6967 55.7742 62.41L56.1242 60.41C56.4376 58.6233 57.5309 57.73 59.4042 57.73ZM58.3742 63.59C58.7076 63.59 58.9742 63.5033 59.1742 63.33C59.3742 63.1567 59.5142 62.8367 59.5942 62.37L59.9342 60.45C59.9542 60.3167 59.9642 60.1967 59.9642 60.09C59.9642 59.55 59.6909 59.28 59.1442 59.28C58.4576 59.2933 58.0476 59.6833 57.9142 60.45L57.5742 62.37C57.5476 62.5367 57.5342 62.71 57.5342 62.89C57.5342 63.3567 57.8142 63.59 58.3742 63.59Z"/>
</mask>
<path d="M21.75 65L21.81 63.43H20.14L19.65 65H17.74L20.31 57.8H23.61L23.65 65H21.75ZM21.34 59.55L20.55 62.09H21.86L21.97 59.55H21.34ZM29.5263 62.36H26.8663L26.4063 65H24.5963L25.8663 57.8H30.8863L30.6063 59.36H27.3863L27.1363 60.8H29.7963L29.5263 62.36ZM33.6819 57.8L32.4219 65H30.6119L31.8819 57.8H33.6819ZM38.3945 65H33.8345L35.1045 57.8H36.9045L35.9145 63.44H38.6745L38.3945 65ZM42.2659 57.8L41.0059 65H39.1959L40.4659 57.8H42.2659ZM45.9785 65L46.0385 63.43H44.3685L43.8785 65H41.9685L44.5385 57.8H47.8385L47.8785 65H45.9785ZM45.5685 59.55L44.7785 62.09H46.0885L46.1985 59.55H45.5685ZM52.8948 57.8C53.7681 57.8 54.3914 58.02 54.7648 58.46C55.0381 58.7933 55.1748 59.21 55.1748 59.71C55.1748 59.89 55.1581 60.08 55.1248 60.28L54.7348 62.51C54.6014 63.2633 54.2748 63.8667 53.7548 64.32C53.2348 64.7733 52.5614 65 51.7348 65H48.8248L50.0948 57.8H52.8948ZM52.2648 59.36H51.6148L50.9048 63.44H51.8548C52.1681 63.44 52.4114 63.3567 52.5848 63.19C52.7648 63.0167 52.8881 62.7367 52.9548 62.35L53.2448 60.71C53.2714 60.5633 53.2848 60.43 53.2848 60.31C53.2848 59.6767 52.9448 59.36 52.2648 59.36ZM59.4042 57.73C61.0109 57.73 61.8142 58.3867 61.8142 59.7C61.8142 59.92 61.7909 60.1567 61.7442 60.41L61.3942 62.41C61.2342 63.3367 60.8876 64.0233 60.3542 64.47C59.8209 64.9167 59.0709 65.14 58.1042 65.14C57.1376 65.14 56.4642 64.9167 56.0842 64.47C55.8242 64.1633 55.6942 63.74 55.6942 63.2C55.6942 62.96 55.7209 62.6967 55.7742 62.41L56.1242 60.41C56.4376 58.6233 57.5309 57.73 59.4042 57.73ZM58.3742 63.59C58.7076 63.59 58.9742 63.5033 59.1742 63.33C59.3742 63.1567 59.5142 62.8367 59.5942 62.37L59.9342 60.45C59.9542 60.3167 59.9642 60.1967 59.9642 60.09C59.9642 59.55 59.6909 59.28 59.1442 59.28C58.4576 59.2933 58.0476 59.6833 57.9142 60.45L57.5742 62.37C57.5476 62.5367 57.5342 62.71 57.5342 62.89C57.5342 63.3567 57.8142 63.59 58.3742 63.59Z" fill="white"/>
<path d="M21.75 65L20.7507 64.9618L20.7111 66H21.75V65ZM21.81 63.43L22.8093 63.4682L22.8489 62.43H21.81V63.43ZM20.14 63.43V62.43H19.4045L19.1854 63.1321L20.14 63.43ZM19.65 65V66H20.3855L20.6046 65.2979L19.65 65ZM17.74 65L16.7982 64.6638L16.3213 66H17.74V65ZM20.31 57.8V56.8H19.6051L19.3682 57.4638L20.31 57.8ZM23.61 57.8L24.61 57.7944L24.6045 56.8H23.61V57.8ZM23.65 65V66H24.6556L24.65 64.9944L23.65 65ZM21.34 59.55V58.55H20.6038L20.3851 59.253L21.34 59.55ZM20.55 62.09L19.5951 61.793L19.1917 63.09H20.55V62.09ZM21.86 62.09V63.09H22.8176L22.8591 62.1333L21.86 62.09ZM21.97 59.55L22.9691 59.5933L23.0142 58.55H21.97V59.55ZM22.7493 65.0382L22.8093 63.4682L20.8107 63.3918L20.7507 64.9618L22.7493 65.0382ZM21.81 62.43H20.14V64.43H21.81V62.43ZM19.1854 63.1321L18.6954 64.7021L20.6046 65.2979L21.0946 63.7279L19.1854 63.1321ZM19.65 64H17.74V66H19.65V64ZM18.6818 65.3362L21.2518 58.1362L19.3682 57.4638L16.7982 64.6638L18.6818 65.3362ZM20.31 58.8H23.61V56.8H20.31V58.8ZM22.61 57.8056L22.65 65.0056L24.65 64.9944L24.61 57.7944L22.61 57.8056ZM23.65 64H21.75V66H23.65V64ZM20.3851 59.253L19.5951 61.793L21.5049 62.387L22.2949 59.847L20.3851 59.253ZM20.55 63.09H21.86V61.09H20.55V63.09ZM22.8591 62.1333L22.9691 59.5933L20.9709 59.5067L20.8609 62.0467L22.8591 62.1333ZM21.97 58.55H21.34V60.55H21.97V58.55ZM29.5262 62.36V63.36H30.368L30.5116 62.5305L29.5262 62.36ZM26.8663 62.36V61.36H26.0254L25.8811 62.1883L26.8663 62.36ZM26.4062 65V66H27.2471L27.3914 65.1717L26.4062 65ZM24.5963 65L23.6115 64.8263L23.4044 66H24.5963V65ZM25.8663 57.8V56.8H25.0272L24.8815 57.6263L25.8663 57.8ZM30.8862 57.8L31.8705 57.9767L32.0817 56.8H30.8862V57.8ZM30.6062 59.36V60.36H31.4427L31.5905 59.5367L30.6062 59.36ZM27.3863 59.36V58.36H26.5449L26.401 59.1889L27.3863 59.36ZM27.1362 60.8L26.151 60.6289L25.9477 61.8H27.1362V60.8ZM29.7963 60.8L30.7816 60.9705L30.9842 59.8H29.7963V60.8ZM29.5262 61.36H26.8663V63.36H29.5262V61.36ZM25.8811 62.1883L25.4211 64.8283L27.3914 65.1717L27.8514 62.5317L25.8811 62.1883ZM26.4062 64H24.5963V66H26.4062V64ZM25.581 65.1737L26.851 57.9737L24.8815 57.6263L23.6115 64.8263L25.581 65.1737ZM25.8663 58.8H30.8862V56.8H25.8663V58.8ZM29.902 57.6233L29.622 59.1833L31.5905 59.5367L31.8705 57.9767L29.902 57.6233ZM30.6062 58.36H27.3863V60.36H30.6062V58.36ZM26.401 59.1889L26.151 60.6289L28.1215 60.9711L28.3715 59.5311L26.401 59.1889ZM27.1362 61.8H29.7963V59.8H27.1362V61.8ZM28.8109 60.6295L28.5409 62.1895L30.5116 62.5305L30.7816 60.9705L28.8109 60.6295ZM33.6819 57.8L34.6669 57.9724L34.8721 56.8H33.6819V57.8ZM32.4219 65V66H33.2621L33.4069 65.1724L32.4219 65ZM30.6119 65L29.6271 64.8263L29.42 66H30.6119V65ZM31.8819 57.8V56.8H31.0428L30.8971 57.6263L31.8819 57.8ZM32.6968 57.6276L31.4368 64.8276L33.4069 65.1724L34.6669 57.9724L32.6968 57.6276ZM32.4219 64H30.6119V66H32.4219V64ZM31.5967 65.1737L32.8667 57.9737L30.8971 57.6263L29.6271 64.8263L31.5967 65.1737ZM31.8819 58.8H33.6819V56.8H31.8819V58.8ZM38.3945 65V66H39.231L39.3788 65.1767L38.3945 65ZM33.8345 65L32.8497 64.8263L32.6427 66H33.8345V65ZM35.1045 57.8V56.8H34.2655L34.1197 57.6263L35.1045 57.8ZM36.9045 57.8L37.8895 57.9729L38.0954 56.8H36.9045V57.8ZM35.9145 63.44L34.9296 63.2671L34.7237 64.44H35.9145V63.44ZM38.6745 63.44L39.6588 63.6167L39.87 62.44H38.6745V63.44ZM38.3945 64H33.8345V66H38.3945V64ZM34.8193 65.1737L36.0893 57.9737L34.1197 57.6263L32.8497 64.8263L34.8193 65.1737ZM35.1045 58.8H36.9045V56.8H35.1045V58.8ZM35.9196 57.6271L34.9296 63.2671L36.8995 63.6129L37.8895 57.9729L35.9196 57.6271ZM35.9145 64.44H38.6745V62.44H35.9145V64.44ZM37.6903 63.2633L37.4103 64.8233L39.3788 65.1767L39.6588 63.6167L37.6903 63.2633ZM42.2659 57.8L43.2509 57.9724L43.4561 56.8H42.2659V57.8ZM41.0059 65V66H41.8461L41.9909 65.1724L41.0059 65ZM39.1959 65L38.2111 64.8263L38.004 66H39.1959V65ZM40.4659 57.8V56.8H39.6268L39.4811 57.6263L40.4659 57.8ZM41.2808 57.6276L40.0208 64.8276L41.9909 65.1724L43.2509 57.9724L41.2808 57.6276ZM41.0059 64H39.1959V66H41.0059V64ZM40.1807 65.1737L41.4507 57.9737L39.4811 57.6263L38.2111 64.8263L40.1807 65.1737ZM40.4659 58.8H42.2659V56.8H40.4659V58.8ZM45.9785 65L44.9792 64.9618L44.9396 66H45.9785V65ZM46.0385 63.43L47.0378 63.4682L47.0775 62.43H46.0385V63.43ZM44.3685 63.43V62.43H43.633L43.4139 63.1321L44.3685 63.43ZM43.8785 65V66H44.614L44.8331 65.2979L43.8785 65ZM41.9685 65L41.0267 64.6638L40.5498 66H41.9685V65ZM44.5385 57.8V56.8H43.8337L43.5967 57.4638L44.5385 57.8ZM47.8385 57.8L48.8385 57.7944L48.833 56.8H47.8385V57.8ZM47.8785 65V66H48.8841L48.8785 64.9944L47.8785 65ZM45.5685 59.55V58.55H44.8323L44.6136 59.253L45.5685 59.55ZM44.7785 62.09L43.8236 61.793L43.4202 63.09H44.7785V62.09ZM46.0885 62.09V63.09H47.0461L47.0876 62.1333L46.0885 62.09ZM46.1985 59.55L47.1976 59.5933L47.2428 58.55H46.1985V59.55ZM46.9778 65.0382L47.0378 63.4682L45.0392 63.3918L44.9792 64.9618L46.9778 65.0382ZM46.0385 62.43H44.3685V64.43H46.0385V62.43ZM43.4139 63.1321L42.9239 64.7021L44.8331 65.2979L45.3231 63.7279L43.4139 63.1321ZM43.8785 64H41.9685V66H43.8785V64ZM42.9103 65.3362L45.4803 58.1362L43.5967 57.4638L41.0267 64.6638L42.9103 65.3362ZM44.5385 58.8H47.8385V56.8H44.5385V58.8ZM46.8385 57.8056L46.8785 65.0056L48.8785 64.9944L48.8385 57.7944L46.8385 57.8056ZM47.8785 64H45.9785V66H47.8785V64ZM44.6136 59.253L43.8236 61.793L45.7334 62.387L46.5234 59.847L44.6136 59.253ZM44.7785 63.09H46.0885V61.09H44.7785V63.09ZM47.0876 62.1333L47.1976 59.5933L45.1995 59.5067L45.0895 62.0467L47.0876 62.1333ZM46.1985 58.55H45.5685V60.55H46.1985V58.55ZM54.7648 58.46L55.538 57.8259L55.5327 57.8194L55.5273 57.813L54.7648 58.46ZM55.1248 60.28L56.1098 60.4523L56.1112 60.4444L55.1248 60.28ZM54.7348 62.51L55.7195 62.6843L55.7198 62.6823L54.7348 62.51ZM53.7548 64.32L53.0976 63.5662L53.7548 64.32ZM48.8248 65L47.84 64.8263L47.6329 66H48.8248V65ZM50.0948 57.8V56.8H49.2557L49.11 57.6263L50.0948 57.8ZM51.6148 59.36V58.36H50.7738L50.6296 59.1886L51.6148 59.36ZM50.9048 63.44L49.9196 63.2686L49.7157 64.44H50.9048V63.44ZM52.5848 63.19L53.2779 63.9108L53.2784 63.9103L52.5848 63.19ZM52.9548 62.35L51.97 62.1759L51.9693 62.1801L52.9548 62.35ZM53.2448 60.71L52.2609 60.5311L52.26 60.5359L53.2448 60.71ZM52.8948 58.8C53.6269 58.8 53.8993 58.9856 54.0023 59.107L55.5273 57.813C54.8836 57.0544 53.9093 56.8 52.8948 56.8V58.8ZM53.9915 59.0941C54.0953 59.2207 54.1748 59.4024 54.1748 59.71H56.1748C56.1748 59.0176 55.9809 58.3659 55.538 57.8259L53.9915 59.0941ZM54.1748 59.71C54.1748 59.8285 54.1638 59.9632 54.1384 60.1156L56.1112 60.4444C56.1524 60.1968 56.1748 59.9515 56.1748 59.71H54.1748ZM54.1397 60.1077L53.7497 62.3377L55.7198 62.6823L56.1098 60.4523L54.1397 60.1077ZM53.7501 62.3357C53.6519 62.8902 53.4265 63.2795 53.0976 63.5662L54.4119 65.0738C55.123 64.4538 55.5509 63.6365 55.7195 62.6843L53.7501 62.3357ZM53.0976 63.5662C52.7944 63.8306 52.3701 64 51.7348 64V66C52.7528 66 53.6752 65.7161 54.4119 65.0738L53.0976 63.5662ZM51.7348 64H48.8248V66H51.7348V64ZM49.8096 65.1737L51.0796 57.9737L49.11 57.6263L47.84 64.8263L49.8096 65.1737ZM50.0948 58.8H52.8948V56.8H50.0948V58.8ZM52.2648 58.36H51.6148V60.36H52.2648V58.36ZM50.6296 59.1886L49.9196 63.2686L51.89 63.6114L52.6 59.5314L50.6296 59.1886ZM50.9048 64.44H51.8548V62.44H50.9048V64.44ZM51.8548 64.44C52.3455 64.44 52.867 64.3059 53.2779 63.9108L51.8917 62.4692C51.9031 62.4582 51.9154 62.4489 51.9271 62.4419C51.9387 62.435 51.9465 62.432 51.9483 62.4314C51.9508 62.4306 51.9244 62.44 51.8548 62.44V64.44ZM53.2784 63.9103C53.677 63.5265 53.8566 63.005 53.9402 62.5199L51.9693 62.1801C51.9461 62.3145 51.9182 62.399 51.8971 62.4469C51.8765 62.4937 51.8689 62.4911 51.8911 62.4697L53.2784 63.9103ZM53.9395 62.5241L54.2295 60.8841L52.26 60.5359L51.97 62.1759L53.9395 62.5241ZM54.2286 60.8889C54.2636 60.6967 54.2848 60.5023 54.2848 60.31H52.2848C52.2848 60.3577 52.2793 60.4299 52.2609 60.5311L54.2286 60.8889ZM54.2848 60.31C54.2848 59.8202 54.15 59.2743 53.7113 58.8657C53.2861 58.4697 52.7419 58.36 52.2648 58.36V60.36C52.3113 60.36 52.3466 60.3627 52.3719 60.3661C52.3973 60.3695 52.4106 60.3732 52.4145 60.3744C52.4181 60.3755 52.4117 60.3739 52.3985 60.3665C52.385 60.359 52.3671 60.3469 52.3482 60.3293C52.3292 60.3115 52.3131 60.292 52.3007 60.2727C52.2884 60.2536 52.2821 60.2387 52.2795 60.2313C52.2748 60.2183 52.2848 60.2384 52.2848 60.31H54.2848ZM61.7442 60.41L60.7607 60.2288L60.7592 60.2376L61.7442 60.41ZM61.3942 62.41L60.4092 62.2376L60.4088 62.2399L61.3942 62.41ZM60.3542 64.47L60.9963 65.2366L60.3542 64.47ZM56.0842 64.47L55.3215 65.1167L55.3226 65.118L56.0842 64.47ZM55.7742 62.41L56.7574 62.5929L56.7593 62.5824L55.7742 62.41ZM56.1242 60.41L55.1393 60.2373L55.1392 60.2376L56.1242 60.41ZM59.1742 63.33L58.5193 62.5743L59.1742 63.33ZM59.5942 62.37L58.6095 62.1956L58.6086 62.201L59.5942 62.37ZM59.9342 60.45L60.9189 60.6244L60.9212 60.6114L60.9232 60.5983L59.9342 60.45ZM59.1442 59.28V58.28H59.1345L59.1248 58.2802L59.1442 59.28ZM57.9142 60.45L58.8989 60.6244L58.8994 60.6213L57.9142 60.45ZM57.5742 62.37L56.5895 62.1956L56.5881 62.2038L56.5868 62.212L57.5742 62.37ZM59.4042 58.73C60.0969 58.73 60.4307 58.8756 60.5788 58.9967C60.6884 59.0863 60.8142 59.2567 60.8142 59.7H62.8142C62.8142 58.83 62.5383 58.0153 61.8446 57.4483C61.1894 56.9127 60.3182 56.73 59.4042 56.73V58.73ZM60.8142 59.7C60.8142 59.85 60.7982 60.0254 60.7608 60.2288L62.7277 60.5912C62.7835 60.2879 62.8142 59.99 62.8142 59.7H60.8142ZM60.7592 60.2376L60.4092 62.2376L62.3792 62.5824L62.7292 60.5824L60.7592 60.2376ZM60.4088 62.2399C60.2748 63.0156 60.0089 63.4548 59.7122 63.7034L60.9963 65.2366C61.7662 64.5919 62.1936 63.6577 62.3796 62.5801L60.4088 62.2399ZM59.7122 63.7034C59.4179 63.9498 58.9268 64.14 58.1042 64.14V66.14C59.2149 66.14 60.2239 65.8835 60.9963 65.2366L59.7122 63.7034ZM58.1042 64.14C57.2455 64.14 56.9419 63.9349 56.8459 63.822L55.3226 65.118C55.9865 65.8984 57.0296 66.14 58.1042 66.14V64.14ZM56.847 63.8233C56.7858 63.7512 56.6942 63.5849 56.6942 63.2H54.6942C54.6942 63.8951 54.8626 64.5755 55.3215 65.1167L56.847 63.8233ZM56.6942 63.2C56.6942 63.0328 56.7129 62.8316 56.7573 62.5929L54.7911 62.2271C54.7288 62.5617 54.6942 62.8872 54.6942 63.2H56.6942ZM56.7593 62.5824L57.1092 60.5824L55.1392 60.2376L54.7892 62.2376L56.7593 62.5824ZM57.1092 60.5827C57.2365 59.8568 57.4989 59.4302 57.8119 59.1744C58.129 58.9153 58.6224 58.73 59.4042 58.73V56.73C58.3127 56.73 57.3227 56.9914 56.5465 57.6256C55.7662 58.2632 55.3253 59.1765 55.1393 60.2373L57.1092 60.5827ZM58.3742 64.59C58.8837 64.59 59.4039 64.4542 59.8292 64.0857L58.5193 62.5743C58.5263 62.5683 58.529 62.5695 58.5151 62.574C58.4984 62.5794 58.4552 62.59 58.3742 62.59V64.59ZM59.8292 64.0857C60.2964 63.6807 60.4883 63.0732 60.5798 62.539L58.6086 62.201C58.5778 62.3808 58.5414 62.4943 58.5131 62.5592C58.4844 62.6246 58.477 62.611 58.5193 62.5743L59.8292 64.0857ZM60.5789 62.5444L60.9189 60.6244L58.9495 60.2756L58.6095 62.1956L60.5789 62.5444ZM60.9232 60.5983C60.9487 60.4281 60.9642 60.2573 60.9642 60.09H58.9642C58.9642 60.1361 58.9597 60.2053 58.9453 60.3017L60.9232 60.5983ZM60.9642 60.09C60.9642 59.6627 60.855 59.1593 60.462 58.7711C60.0712 58.3851 59.5686 58.28 59.1442 58.28V60.28C59.2665 60.28 59.1739 60.3099 59.0565 60.1939C59.0018 60.1399 58.9755 60.0851 58.9655 60.0554C58.9571 60.0306 58.9642 60.0364 58.9642 60.09H60.9642ZM59.1248 58.2802C58.5878 58.2906 58.0555 58.4556 57.6325 58.8579C57.2232 59.2473 57.0189 59.7617 56.929 60.2787L58.8994 60.6213C58.9429 60.3716 59.0102 60.3077 59.0109 60.3071C59.0113 60.3067 59.013 60.304 59.0263 60.2992C59.0424 60.2932 59.0841 60.2814 59.1636 60.2798L59.1248 58.2802ZM56.9295 60.2756L56.5895 62.1956L58.5589 62.5444L58.8989 60.6244L56.9295 60.2756ZM56.5868 62.212C56.5512 62.4342 56.5342 62.6606 56.5342 62.89H58.5342C58.5342 62.7594 58.5439 62.6391 58.5617 62.528L56.5868 62.212ZM56.5342 62.89C56.5342 63.3303 56.675 63.8257 57.104 64.1832C57.4981 64.5116 57.98 64.59 58.3742 64.59V62.59C58.3004 62.59 58.2716 62.582 58.2744 62.5827C58.2796 62.5842 58.3263 62.5983 58.3844 62.6468C58.4464 62.6985 58.4907 62.7637 58.5152 62.8249C58.5372 62.8799 58.5342 62.9087 58.5342 62.89H56.5342Z" fill="#005397" mask="url(#path-2-outside-1_269_2170)"/>
<g clip-path="url(#clip0_269_2170)">
<path d="M50.427 35.698C48.9877 34.2586 47.0355 33.45 45 33.45H34C31.9645 33.45 30.0123 34.2586 28.573 35.698C27.1336 37.1373 26.325 39.0895 26.325 41.125V42.5C26.325 43.4415 26.699 44.3445 27.3648 45.0102C28.0305 45.676 28.9335 46.05 29.875 46.05H49.125C50.0665 46.05 50.9695 45.676 51.6352 45.0102C52.301 44.3445 52.675 43.4415 52.675 42.5V41.125C52.675 39.0895 51.8664 37.1373 50.427 35.698ZM52.038 25.837C51.6301 25.4292 51.0768 25.2 50.5 25.2C49.9232 25.2 49.3699 25.4292 48.962 25.837C48.5541 26.2449 48.325 26.7982 48.325 27.375V27.95H47.75C47.1732 27.95 46.6199 28.1792 46.212 28.587C45.8041 28.9949 45.575 29.5482 45.575 30.125C45.575 30.7018 45.8041 31.2551 46.212 31.663C46.6199 32.0708 47.1732 32.3 47.75 32.3H48.325V32.875C48.325 33.4518 48.5541 34.0051 48.962 34.413C49.3699 34.8209 49.9232 35.05 50.5 35.05C51.0768 35.05 51.6301 34.8209 52.038 34.413C52.4459 34.0051 52.675 33.4518 52.675 32.875V32.3H53.25C53.8268 32.3 54.3801 32.0708 54.788 31.663C55.1959 31.2551 55.425 30.7018 55.425 30.125C55.425 29.5482 55.1959 28.9949 54.788 28.587C54.3801 28.1792 53.8268 27.95 53.25 27.95H52.675V27.375C52.675 26.7982 52.4459 26.2449 52.038 25.837ZM44.927 19.198C43.4877 17.7586 41.5355 16.95 39.5 16.95C37.4645 16.95 35.5123 17.7586 34.073 19.198C32.6336 20.6373 31.825 22.5895 31.825 24.625C31.825 26.6605 32.6336 28.6127 34.073 30.052C35.5123 31.4914 37.4645 32.3 39.5 32.3C41.5355 32.3 43.4877 31.4914 44.927 30.052C46.3664 28.6127 47.175 26.6605 47.175 24.625C47.175 22.5895 46.3664 20.6373 44.927 19.198Z" fill="white" stroke="#005397" stroke-width="1.6"/>
</g>
<defs>
<clipPath id="clip0_269_2170">
<rect width="33" height="33" fill="white" transform="translate(23 15)"/>
</clipPath>
</defs>
</svg>
