<svg width="21" height="24" viewBox="0 0 21 24" fill="none" xmlns="http://www.w3.org/2000/svg">
<path d="M20.5721 18.2572L11.3098 23.5578C10.8654 23.8121 10.1383 23.8121 9.69401 23.5578L0.431616 18.2572C0.209439 18.1301 0.0983735 17.9625 0.0983735 17.7949H0V5.9541H20.9054V17.7949C20.9054 17.9625 20.7944 18.1301 20.5721 18.2572Z" fill="#0064B5"/>
<path d="M20.9054 5.95415V17.795C20.9054 17.9626 20.7943 18.1302 20.5721 18.2573L11.3097 23.5578C11.0787 23.69 10.7712 23.753 10.4668 23.7476C10.474 17.8184 10.6374 11.8817 10.4587 5.9541L20.9054 5.95415Z" fill="#177ED4"/>
<path d="M9.69339 11.7164L0.431044 6.41585C-0.0133101 6.16156 -0.0133101 5.74549 0.431044 5.4912L9.69339 0.190719C10.1377 -0.0635729 10.8649 -0.0635729 11.3092 0.190719L20.5716 5.49124C21.0159 5.74554 21.0159 6.1616 20.5716 6.4159L11.3092 11.7164C10.8649 11.9707 10.1377 11.9707 9.69339 11.7164Z" fill="#209BFF"/>
<path d="M16.7888 3.15646C16.7883 3.21249 16.7732 3.26735 16.745 3.31528C16.7169 3.3632 16.6767 3.40241 16.6288 3.42877L5.53089 9.52817C5.51561 9.53658 5.49965 9.5436 5.48319 9.54917L5.44567 9.57079V20.9537C5.44568 21.008 5.43194 21.0613 5.40583 21.1084C5.37972 21.1555 5.34214 21.1947 5.29681 21.2223C5.25147 21.2498 5.19995 21.2646 5.14734 21.2653C5.09473 21.266 5.04286 21.2525 4.99686 21.2262L3.13725 20.162C3.0901 20.135 3.05081 20.0955 3.02346 20.0476C2.99611 19.9997 2.98169 19.9451 2.98169 19.8896V8.81266C2.98174 8.62258 3.02317 8.43495 3.10294 8.26359C3.1827 8.09223 3.29876 7.94152 3.44255 7.82257L3.45352 7.81375C3.47788 7.7941 3.50099 7.7768 3.52474 7.76026C3.56004 7.73555 3.59654 7.7127 3.63409 7.69181L14.4077 1.77058C14.4523 1.74611 14.502 1.73352 14.5525 1.73397C14.6029 1.73441 14.6524 1.74787 14.6965 1.77312L16.6333 2.88141C16.6808 2.90861 16.7203 2.94852 16.7477 2.99692C16.775 3.04532 16.7892 3.10044 16.7888 3.15646ZM17.8122 7.97534C17.7419 7.89267 17.6614 7.81979 17.5728 7.75853C17.567 7.75446 17.5612 7.75039 17.5544 7.74578C17.5256 7.72646 17.4961 7.7084 17.4658 7.69167L6.69222 1.77054C6.64771 1.74605 6.59795 1.73345 6.5475 1.7339C6.49706 1.73434 6.44752 1.74781 6.40342 1.77308L4.46668 2.88137C4.41914 2.90855 4.3796 2.94844 4.35221 2.99686C4.32482 3.04527 4.31061 3.10041 4.31108 3.15645C4.31154 3.2125 4.32665 3.26738 4.35483 3.3153C4.38301 3.36323 4.42321 3.40243 4.47119 3.42877L15.5691 9.52817C15.5845 9.53666 15.6005 9.54365 15.6168 9.54922L15.6543 9.57083V20.9538C15.6543 21.008 15.668 21.0613 15.6941 21.1084C15.7202 21.1555 15.7578 21.1948 15.8032 21.2223C15.8485 21.2498 15.9 21.2647 15.9526 21.2654C16.0052 21.2661 16.0571 21.2526 16.1031 21.2262L17.9627 20.1621C18.0098 20.1351 18.0491 20.0956 18.0765 20.0477C18.1038 19.9998 18.1183 19.9452 18.1183 19.8896V8.81266C18.1181 8.50451 18.0093 8.20692 17.8122 7.97534Z" fill="#E9F5FF"/>
<path d="M14.2091 6.17388C14.2091 6.95574 13.279 7.52319 11.9976 7.52319C11.475 7.52319 11.011 7.42871 10.6445 7.26391C10.5977 7.24297 10.5471 7.23292 10.4961 7.23449C10.4451 7.23605 10.3951 7.24919 10.3496 7.27297C9.96764 7.4717 9.46122 7.58751 8.88288 7.58751C7.60147 7.58751 6.67139 7.02007 6.67139 6.23821C6.67139 5.84458 6.90719 5.50534 7.30486 5.26543C7.46154 5.17095 7.52732 4.9693 7.44973 4.80014C7.16628 4.18207 7.17539 3.60221 7.52304 3.24376C7.7031 3.05811 7.94968 2.95999 8.2362 2.95999C8.43751 2.95999 8.6561 3.00902 8.8807 3.1011C8.96698 3.13659 9.06335 3.13566 9.14897 3.09851C9.2346 3.06136 9.30262 2.99098 9.33835 2.90256C9.56917 2.33449 9.95109 1.98462 10.409 1.98462C10.8591 1.98462 11.2359 2.3226 11.4679 2.87366C11.5449 3.05657 11.7481 3.14386 11.9268 3.06779C12.1615 2.96794 12.3902 2.91454 12.6001 2.91454C12.962 2.91454 13.1877 3.06884 13.3133 3.19832C13.655 3.55068 13.6697 4.11693 13.4009 4.72315C13.3255 4.89322 13.3923 5.09445 13.5502 5.18644C13.9632 5.42697 14.2091 5.77205 14.2091 6.17388Z" fill="#FFC700"/>
</svg>
