<svg width="158" height="158" viewBox="0 0 158 158" fill="none" xmlns="http://www.w3.org/2000/svg">
<circle cx="79" cy="79" r="76" fill="#38B523" stroke="#2CA517" stroke-width="6"/>
<path d="M113.674 60.264L102.034 48.6225C101.625 48.2144 101.071 47.9852 100.494 47.9852C99.916 47.9852 99.3619 48.2144 98.953 48.6225L68.0307 79.5448L59.8353 71.3504C59.4267 70.9419 58.8725 70.7124 58.2947 70.7124C57.7169 70.7124 57.1628 70.9419 56.7541 71.3504L45.1117 82.9919C44.7034 83.4006 44.4741 83.9547 44.4741 84.5324C44.4741 85.1102 44.7034 85.6643 45.1117 86.073L66.422 107.379C66.6243 107.581 66.8644 107.742 67.1286 107.851C67.3929 107.961 67.6761 108.017 67.9622 108.017C67.9883 108.017 68.0117 108.002 68.037 108.002C68.0586 108.002 68.082 108.015 68.1046 108.015C68.6642 108.015 69.2184 107.802 69.6447 107.377L113.674 63.3451C113.876 63.1429 114.037 62.9028 114.147 62.6384C114.256 62.3741 114.313 62.0907 114.313 61.8045C114.313 61.5184 114.256 61.235 114.147 60.9707C114.037 60.7063 113.876 60.4662 113.674 60.264Z" fill="white"/>
</svg>
