<svg width="61" height="61" viewBox="0 0 61 61" fill="none" xmlns="http://www.w3.org/2000/svg">
<rect x="1.5" y="1.5" width="58" height="58" rx="11.5" fill="#0064B5" stroke="#005397" stroke-width="3"/>
<path d="M34.2712 11.6871L33.9177 12.0407L34.2712 11.6871C33.271 10.6869 31.9145 10.125 30.5 10.125C29.0855 10.125 27.729 10.6869 26.7288 11.6871C25.7286 12.6873 25.1667 14.0438 25.1667 15.4583C25.1667 16.8728 25.7286 18.2294 26.7288 19.2296C27.729 20.2298 29.0855 20.7917 30.5 20.7917C31.9145 20.7917 33.271 20.2298 34.2712 19.2296C35.2714 18.2294 35.8333 16.8728 35.8333 15.4583C35.8333 14.0438 35.2714 12.6873 34.2712 11.6871ZM25.6667 22.2083C23.9317 22.2083 22.2678 22.8975 21.041 24.1243C19.8142 25.3511 19.125 27.015 19.125 28.75C19.125 29.844 19.5596 30.8932 20.3332 31.6668C21.1068 32.4404 22.156 32.875 23.25 32.875H37.75C38.844 32.875 39.8932 32.4404 40.6668 31.6668C41.4404 30.8932 41.875 29.844 41.875 28.75C41.875 27.015 41.1858 25.3511 39.959 24.1243C38.7322 22.8975 37.0683 22.2083 35.3333 22.2083H25.6667Z" fill="white" stroke="#005397"/>
<mask id="path-3-outside-1_297_599" maskUnits="userSpaceOnUse" x="12" y="39" width="37" height="10" fill="black">
<rect fill="white" x="12" y="39" width="37" height="10"/>
<path d="M17.57 45.81H16.38L15.99 48H14.19L15.46 40.8H18.51C19.2633 40.8 19.8 40.9733 20.12 41.32C20.3533 41.5867 20.47 41.9267 20.47 42.34C20.47 42.48 20.4567 42.6267 20.43 42.78L20.23 43.91C20.13 44.4633 19.8367 44.92 19.35 45.28C18.8633 45.6333 18.27 45.81 17.57 45.81ZM17.88 42.36H16.98L16.65 44.25H17.54C18.0867 44.25 18.4033 44.0067 18.49 43.52L18.56 43.11C18.5733 43.05 18.58 42.97 18.58 42.87C18.58 42.77 18.53 42.66 18.43 42.54C18.33 42.42 18.1467 42.36 17.88 42.36ZM25.587 48H20.567L21.837 40.8H26.857L26.577 42.36H23.357L23.127 43.71H25.787L25.507 45.27H22.847L22.647 46.44H25.867L25.587 48ZM30.9088 40.8C31.6688 40.8 32.2088 40.9667 32.5288 41.3C32.7688 41.5533 32.8888 41.8733 32.8888 42.26C32.8888 42.3933 32.8755 42.5333 32.8488 42.68L32.7088 43.46C32.6288 43.8933 32.4888 44.2433 32.2888 44.51C32.0955 44.7767 31.8788 44.9667 31.6388 45.08L32.5488 48H30.5288L29.6888 45.31H29.0688L28.6588 48H26.7388L28.0088 40.8H30.9088ZM30.2788 42.36H29.5288L29.2688 44.1H29.9688C30.3222 44.1 30.5755 44.0167 30.7288 43.85C30.8822 43.6767 30.9588 43.45 30.9588 43.17C30.9588 42.63 30.7322 42.36 30.2788 42.36ZM38.2313 45.36H35.5713L35.1113 48H33.3013L34.5713 40.8H39.5913L39.3113 42.36H36.0913L35.8413 43.8H38.5013L38.2313 45.36ZM42.387 40.8L41.127 48H39.317L40.587 40.8H42.387ZM47.0996 48H42.5396L43.8096 40.8H45.6096L44.6196 46.44H47.3796L47.0996 48Z"/>
</mask>
<path d="M17.57 45.81H16.38L15.99 48H14.19L15.46 40.8H18.51C19.2633 40.8 19.8 40.9733 20.12 41.32C20.3533 41.5867 20.47 41.9267 20.47 42.34C20.47 42.48 20.4567 42.6267 20.43 42.78L20.23 43.91C20.13 44.4633 19.8367 44.92 19.35 45.28C18.8633 45.6333 18.27 45.81 17.57 45.81ZM17.88 42.36H16.98L16.65 44.25H17.54C18.0867 44.25 18.4033 44.0067 18.49 43.52L18.56 43.11C18.5733 43.05 18.58 42.97 18.58 42.87C18.58 42.77 18.53 42.66 18.43 42.54C18.33 42.42 18.1467 42.36 17.88 42.36ZM25.587 48H20.567L21.837 40.8H26.857L26.577 42.36H23.357L23.127 43.71H25.787L25.507 45.27H22.847L22.647 46.44H25.867L25.587 48ZM30.9088 40.8C31.6688 40.8 32.2088 40.9667 32.5288 41.3C32.7688 41.5533 32.8888 41.8733 32.8888 42.26C32.8888 42.3933 32.8755 42.5333 32.8488 42.68L32.7088 43.46C32.6288 43.8933 32.4888 44.2433 32.2888 44.51C32.0955 44.7767 31.8788 44.9667 31.6388 45.08L32.5488 48H30.5288L29.6888 45.31H29.0688L28.6588 48H26.7388L28.0088 40.8H30.9088ZM30.2788 42.36H29.5288L29.2688 44.1H29.9688C30.3222 44.1 30.5755 44.0167 30.7288 43.85C30.8822 43.6767 30.9588 43.45 30.9588 43.17C30.9588 42.63 30.7322 42.36 30.2788 42.36ZM38.2313 45.36H35.5713L35.1113 48H33.3013L34.5713 40.8H39.5913L39.3113 42.36H36.0913L35.8413 43.8H38.5013L38.2313 45.36ZM42.387 40.8L41.127 48H39.317L40.587 40.8H42.387ZM47.0996 48H42.5396L43.8096 40.8H45.6096L44.6196 46.44H47.3796L47.0996 48Z" fill="white"/>
<path d="M16.38 45.81V44.81H15.5423L15.3955 45.6347L16.38 45.81ZM15.99 48V49H16.8277L16.9745 48.1753L15.99 48ZM14.19 48L13.2052 47.8263L12.9982 49H14.19V48ZM15.46 40.8V39.8H14.621L14.4752 40.6263L15.46 40.8ZM20.12 41.32L20.8726 40.6615L20.8638 40.6515L20.8548 40.6417L20.12 41.32ZM20.43 42.78L21.4147 42.9543L21.4152 42.9513L20.43 42.78ZM20.23 43.91L21.2141 44.0878L21.2147 44.0843L20.23 43.91ZM19.35 45.28L19.9375 46.0892L19.9447 46.0839L19.35 45.28ZM16.98 42.36V41.36H16.1395L15.9949 42.188L16.98 42.36ZM16.65 44.25L15.6649 44.078L15.4603 45.25H16.65V44.25ZM18.49 43.52L19.4745 43.6953L19.4757 43.6883L18.49 43.52ZM18.56 43.11L17.5838 42.8931L17.5784 42.9173L17.5743 42.9417L18.56 43.11ZM18.43 42.54L17.6618 43.1802L17.6618 43.1802L18.43 42.54ZM17.57 44.81H16.38V46.81H17.57V44.81ZM15.3955 45.6347L15.0055 47.8247L16.9745 48.1753L17.3645 45.9853L15.3955 45.6347ZM15.99 47H14.19V49H15.99V47ZM15.1748 48.1737L16.4448 40.9737L14.4752 40.6263L13.2052 47.8263L15.1748 48.1737ZM15.46 41.8H18.51V39.8H15.46V41.8ZM18.51 41.8C19.1467 41.8 19.342 41.9515 19.3852 41.9983L20.8548 40.6417C20.258 39.9952 19.38 39.8 18.51 39.8V41.8ZM19.3674 41.9785C19.4152 42.0331 19.47 42.1262 19.47 42.34H21.47C21.47 41.7271 21.2914 41.1402 20.8726 40.6615L19.3674 41.9785ZM19.47 42.34C19.47 42.4166 19.4627 42.5057 19.4448 42.6087L21.4152 42.9513C21.4506 42.7476 21.47 42.5434 21.47 42.34H19.47ZM19.4453 42.6057L19.2453 43.7357L21.2147 44.0843L21.4147 42.9543L19.4453 42.6057ZM19.2459 43.7322C19.1949 44.0146 19.0543 44.2548 18.7553 44.4761L19.9447 46.0839C20.619 45.5852 21.0651 44.9121 21.2141 44.0878L19.2459 43.7322ZM18.7625 44.4708C18.4735 44.6806 18.0947 44.81 17.57 44.81V46.81C18.4453 46.81 19.2532 46.586 19.9375 46.0892L18.7625 44.4708ZM17.88 41.36H16.98V43.36H17.88V41.36ZM15.9949 42.188L15.6649 44.078L17.6351 44.422L17.9651 42.532L15.9949 42.188ZM16.65 45.25H17.54V43.25H16.65V45.25ZM17.54 45.25C17.9535 45.25 18.4093 45.1582 18.7968 44.8604C19.197 44.5529 19.3983 44.1231 19.4745 43.6953L17.5055 43.3447C17.4996 43.3778 17.4951 43.3765 17.5066 43.3558C17.5124 43.3453 17.5214 43.3315 17.5343 43.3163C17.5473 43.301 17.5622 43.2869 17.5782 43.2746C17.6116 43.2489 17.6361 43.2417 17.6356 43.2419C17.6328 43.2427 17.6042 43.25 17.54 43.25V45.25ZM19.4757 43.6883L19.5457 43.2783L17.5743 42.9417L17.5043 43.3517L19.4757 43.6883ZM19.5362 43.3269C19.5721 43.1655 19.58 43.0036 19.58 42.87H17.58C17.58 42.884 17.5798 42.8953 17.5794 42.9042C17.5791 42.9132 17.5787 42.919 17.5785 42.922C17.5782 42.925 17.5782 42.9241 17.5788 42.9198C17.5794 42.9157 17.5808 42.9064 17.5838 42.8931L19.5362 43.3269ZM19.58 42.87C19.58 42.4361 19.3682 42.1038 19.1982 41.8998L17.6618 43.1802C17.6703 43.1904 17.6531 43.1725 17.6321 43.1263C17.6101 43.0779 17.58 42.9893 17.58 42.87H19.58ZM19.1982 41.8998C18.8087 41.4323 18.2414 41.36 17.88 41.36V43.36C17.945 43.36 17.9454 43.3681 17.9065 43.3554C17.8615 43.3407 17.7574 43.295 17.6618 43.1802L19.1982 41.8998ZM25.587 48V49H26.4234L26.5712 48.1767L25.587 48ZM20.567 48L19.5822 47.8263L19.3751 49H20.567V48ZM21.837 40.8V39.8H20.9979L20.8522 40.6263L21.837 40.8ZM26.857 40.8L27.8412 40.9767L28.0524 39.8H26.857V40.8ZM26.577 42.36V43.36H27.4134L27.5612 42.5367L26.577 42.36ZM23.357 42.36V41.36H22.5129L22.3712 42.192L23.357 42.36ZM23.127 43.71L22.1412 43.542L21.9422 44.71H23.127V43.71ZM25.787 43.71L26.7712 43.8867L26.9824 42.71H25.787V43.71ZM25.507 45.27V46.27H26.3434L26.4912 45.4467L25.507 45.27ZM22.847 45.27V44.27H22.0034L21.8613 45.1015L22.847 45.27ZM22.647 46.44L21.6613 46.2715L21.4615 47.44H22.647V46.44ZM25.867 46.44L26.8512 46.6167L27.0624 45.44H25.867V46.44ZM25.587 47H20.567V49H25.587V47ZM21.5518 48.1737L22.8218 40.9737L20.8522 40.6263L19.5822 47.8263L21.5518 48.1737ZM21.837 41.8H26.857V39.8H21.837V41.8ZM25.8727 40.6233L25.5927 42.1833L27.5612 42.5367L27.8412 40.9767L25.8727 40.6233ZM26.577 41.36H23.357V43.36H26.577V41.36ZM22.3712 42.192L22.1412 43.542L24.1127 43.878L24.3427 42.528L22.3712 42.192ZM23.127 44.71H25.787V42.71H23.127V44.71ZM24.8027 43.5333L24.5227 45.0933L26.4912 45.4467L26.7712 43.8867L24.8027 43.5333ZM25.507 44.27H22.847V46.27H25.507V44.27ZM21.8613 45.1015L21.6613 46.2715L23.6327 46.6085L23.8327 45.4385L21.8613 45.1015ZM22.647 47.44H25.867V45.44H22.647V47.44ZM24.8827 46.2633L24.6027 47.8233L26.5712 48.1767L26.8512 46.6167L24.8827 46.2633ZM32.5288 41.3L33.2548 40.6122L33.2502 40.6075L32.5288 41.3ZM32.8488 42.68L31.865 42.5011L31.8646 42.5033L32.8488 42.68ZM32.7088 43.46L33.6922 43.6415L33.6931 43.6367L32.7088 43.46ZM32.2888 44.51L31.4888 43.91L31.484 43.9165L31.4792 43.923L32.2888 44.51ZM31.6388 45.08L31.2118 44.1758L30.4253 44.5471L30.6841 45.3775L31.6388 45.08ZM32.5488 48V49H33.9079L33.5035 47.7025L32.5488 48ZM30.5288 48L29.5743 48.2981L29.7935 49H30.5288V48ZM29.6888 45.31L30.6434 45.0119L30.4242 44.31H29.6888V45.31ZM29.0688 45.31V44.31H28.2097L28.0802 45.1593L29.0688 45.31ZM28.6588 48V49H29.518L29.6474 48.1507L28.6588 48ZM26.7388 48L25.754 47.8263L25.547 49H26.7388V48ZM28.0088 40.8V39.8H27.1698L27.024 40.6263L28.0088 40.8ZM29.5288 42.36V41.36H28.6672L28.5398 42.2122L29.5288 42.36ZM29.2688 44.1L28.2798 43.9522L28.1083 45.1H29.2688V44.1ZM30.7288 43.85L31.4648 44.5271L31.4714 44.5199L31.4778 44.5126L30.7288 43.85ZM30.9088 41.8C31.5645 41.8 31.7671 41.9506 31.8074 41.9925L33.2502 40.6075C32.6505 39.9828 31.7731 39.8 30.9088 39.8V41.8ZM31.8029 41.9877C31.8473 42.0346 31.8888 42.0991 31.8888 42.26H33.8888C33.8888 41.6475 33.6904 41.0721 33.2548 40.6123L31.8029 41.9877ZM31.8888 42.26C31.8888 42.3268 31.8821 42.4067 31.865 42.5011L33.8327 42.8589C33.8689 42.66 33.8888 42.4599 33.8888 42.26H31.8888ZM31.8646 42.5033L31.7246 43.2833L33.6931 43.6367L33.8331 42.8567L31.8646 42.5033ZM31.7254 43.2785C31.6648 43.6068 31.5714 43.8 31.4888 43.91L33.0888 45.11C33.4063 44.6867 33.5928 44.1798 33.6922 43.6415L31.7254 43.2785ZM31.4792 43.923C31.3612 44.0858 31.2671 44.1496 31.2118 44.1758L32.0658 45.9842C32.4905 45.7837 32.8298 45.4675 33.0984 45.097L31.4792 43.923ZM30.6841 45.3775L31.5941 48.2975L33.5035 47.7025L32.5935 44.7825L30.6841 45.3775ZM32.5488 47H30.5288V49H32.5488V47ZM31.4834 47.7019L30.6434 45.0119L28.7343 45.6081L29.5743 48.2981L31.4834 47.7019ZM29.6888 44.31H29.0688V46.31H29.6888V44.31ZM28.0802 45.1593L27.6702 47.8493L29.6474 48.1507L30.0574 45.4607L28.0802 45.1593ZM28.6588 47H26.7388V49H28.6588V47ZM27.7236 48.1737L28.9936 40.9737L27.024 40.6263L25.754 47.8263L27.7236 48.1737ZM28.0088 41.8H30.9088V39.8H28.0088V41.8ZM30.2788 41.36H29.5288V43.36H30.2788V41.36ZM28.5398 42.2122L28.2798 43.9522L30.2578 44.2478L30.5178 42.5078L28.5398 42.2122ZM29.2688 45.1H29.9688V43.1H29.2688V45.1ZM29.9688 45.1C30.4475 45.1 31.0381 44.9908 31.4648 44.5271L29.9929 43.1729C30.0202 43.1433 30.048 43.1219 30.0714 43.1075C30.0941 43.0935 30.1092 43.0883 30.1114 43.0876C30.1132 43.087 30.1035 43.0903 30.079 43.0937C30.0545 43.097 30.0184 43.1 29.9688 43.1V45.1ZM31.4778 44.5126C31.8252 44.1198 31.9588 43.6404 31.9588 43.17H29.9588C29.9588 43.2192 29.9521 43.2353 29.954 43.2296C29.955 43.2267 29.9576 43.2202 29.9625 43.2115C29.9676 43.2028 29.9736 43.1945 29.9798 43.1874L31.4778 44.5126ZM31.9588 43.17C31.9588 42.7844 31.8815 42.3088 31.5547 41.9195C31.1998 41.4967 30.71 41.36 30.2788 41.36V43.36C30.295 43.36 30.2641 43.3626 30.2073 43.34C30.1443 43.315 30.0769 43.2697 30.0229 43.2055C29.9721 43.1449 29.9561 43.0949 29.9533 43.0851C29.9513 43.0779 29.9588 43.1017 29.9588 43.17H31.9588ZM38.2313 45.36V46.36H39.0731L39.2167 45.5305L38.2313 45.36ZM35.5713 45.36V44.36H34.7305L34.5862 45.1883L35.5713 45.36ZM35.1113 48V49H35.9522L36.0965 48.1717L35.1113 48ZM33.3013 48L32.3165 47.8263L32.1095 49H33.3013V48ZM34.5713 40.8V39.8H33.7323L33.5865 40.6263L34.5713 40.8ZM39.5913 40.8L40.5756 40.9767L40.7868 39.8H39.5913V40.8ZM39.3113 42.36V43.36H40.1478L40.2956 42.5367L39.3113 42.36ZM36.0913 42.36V41.36H35.25L35.1061 42.1889L36.0913 42.36ZM35.8413 43.8L34.8561 43.6289L34.6528 44.8H35.8413V43.8ZM38.5013 43.8L39.4867 43.9705L39.6893 42.8H38.5013V43.8ZM38.2313 44.36H35.5713V46.36H38.2313V44.36ZM34.5862 45.1883L34.1262 47.8283L36.0965 48.1717L36.5565 45.5317L34.5862 45.1883ZM35.1113 47H33.3013V49H35.1113V47ZM34.2861 48.1737L35.5561 40.9737L33.5865 40.6263L32.3165 47.8263L34.2861 48.1737ZM34.5713 41.8H39.5913V39.8H34.5713V41.8ZM38.6071 40.6233L38.3271 42.1833L40.2956 42.5367L40.5756 40.9767L38.6071 40.6233ZM39.3113 41.36H36.0913V43.36H39.3113V41.36ZM35.1061 42.1889L34.8561 43.6289L36.8266 43.9711L37.0766 42.5311L35.1061 42.1889ZM35.8413 44.8H38.5013V42.8H35.8413V44.8ZM37.516 43.6295L37.246 45.1895L39.2167 45.5305L39.4867 43.9705L37.516 43.6295ZM42.387 40.8L43.372 40.9724L43.5772 39.8H42.387V40.8ZM41.127 48V49H41.9671L42.112 48.1724L41.127 48ZM39.317 48L38.3322 47.8263L38.1251 49H39.317V48ZM40.587 40.8V39.8H39.7479L39.6022 40.6263L40.587 40.8ZM41.4019 40.6276L40.1419 47.8276L42.112 48.1724L43.372 40.9724L41.4019 40.6276ZM41.127 47H39.317V49H41.127V47ZM40.3018 48.1737L41.5718 40.9737L39.6022 40.6263L38.3322 47.8263L40.3018 48.1737ZM40.587 41.8H42.387V39.8H40.587V41.8ZM47.0996 48V49H47.9361L48.0839 48.1767L47.0996 48ZM42.5396 48L41.5548 47.8263L41.3478 49H42.5396V48ZM43.8096 40.8V39.8H42.9706L42.8248 40.6263L43.8096 40.8ZM45.6096 40.8L46.5946 40.9729L46.8004 39.8H45.6096V40.8ZM44.6196 46.44L43.6347 46.2671L43.4288 47.44H44.6196V46.44ZM47.3796 46.44L48.3639 46.6167L48.5751 45.44H47.3796V46.44ZM47.0996 47H42.5396V49H47.0996V47ZM43.5244 48.1737L44.7944 40.9737L42.8248 40.6263L41.5548 47.8263L43.5244 48.1737ZM43.8096 41.8H45.6096V39.8H43.8096V41.8ZM44.6247 40.6271L43.6347 46.2671L45.6046 46.6129L46.5946 40.9729L44.6247 40.6271ZM44.6196 47.44H47.3796V45.44H44.6196V47.44ZM46.3953 46.2633L46.1153 47.8233L48.0839 48.1767L48.3639 46.6167L46.3953 46.2633Z" fill="#005397" mask="url(#path-3-outside-1_297_599)"/>
</svg>
