<svg width="18" height="18" viewBox="0 0 18 18" fill="none" xmlns="http://www.w3.org/2000/svg">
<path d="M4.38745 7.91245C4.38745 5.8975 4.38745 4.88931 5.01374 4.26374C5.63931 3.63745 6.6475 3.63745 8.66245 3.63745H10.8C12.8149 3.63745 13.8231 3.63745 14.4487 4.26374C15.075 4.88931 15.075 5.8975 15.075 7.91245V11.475C15.075 13.4899 15.075 14.4981 14.4487 15.1237C13.8231 15.75 12.8149 15.75 10.8 15.75H8.66245C6.6475 15.75 5.63931 15.75 5.01374 15.1237C4.38745 14.4981 4.38745 13.4899 4.38745 11.475V7.91245Z" stroke="white" stroke-width="1.5"/>
<path d="M4.3875 13.6125C3.8206 13.6125 3.27692 13.3873 2.87606 12.9864C2.4752 12.5856 2.25 12.0419 2.25 11.475V7.2C2.25 4.51316 2.25 3.16939 3.08505 2.33505C3.91939 1.5 5.26316 1.5 7.95 1.5H10.8C11.3669 1.5 11.9106 1.7252 12.3114 2.12606C12.7123 2.52692 12.9375 3.0706 12.9375 3.6375" stroke="white" stroke-width="1.5"/>
</svg>
