<svg width="23" height="23" viewBox="0 0 23 23" fill="none" xmlns="http://www.w3.org/2000/svg">
<path d="M17.25 1.54086C18.9982 2.5502 20.45 4.00194 21.4593 5.75016C22.4686 7.49838 23 9.48149 23 11.5002C23 13.5188 22.4686 15.5019 21.4592 17.2501C20.4499 18.9983 18.9981 20.4501 17.2499 21.4594C15.5016 22.4687 13.5185 23 11.4998 23C9.48113 23 7.49802 22.4686 5.74981 21.4592C4.0016 20.4498 2.54988 18.9981 1.54058 17.2498C0.531277 15.5016 -5.12781e-05 13.5185 3.7118e-09 11.4998L0.00575014 11.1272C0.0701537 9.14115 0.64808 7.20568 1.68319 5.50948C2.71829 3.81328 4.17525 2.41423 5.91203 1.44873C7.6488 0.483233 9.60612 -0.0157673 11.5932 0.00037978C13.5802 0.0165268 15.5291 0.54727 17.25 1.54086ZM11.5 4.59984C11.195 4.59984 10.9025 4.721 10.6868 4.93667C10.4712 5.15233 10.35 5.44484 10.35 5.74983C9.435 5.74983 8.55748 6.11331 7.91048 6.76031C7.26348 7.4073 6.9 8.28482 6.9 9.19981C6.9 10.1148 7.26348 10.9923 7.91048 11.6393C8.55748 12.2863 9.435 12.6498 10.35 12.6498V14.9498C10.1593 14.9599 9.96905 14.9236 9.79555 14.8438C9.62206 14.7641 9.47056 14.6434 9.3541 14.4921L9.2759 14.3759C9.11856 14.1222 8.8687 13.9396 8.57916 13.8667C8.28961 13.7939 7.98309 13.8365 7.72439 13.9855C7.4657 14.1346 7.27512 14.3784 7.19295 14.6655C7.11078 14.9525 7.14347 15.2602 7.2841 15.5236C7.57762 16.0327 7.99631 16.4583 8.50046 16.7602C9.00461 17.0621 9.57751 17.2302 10.1648 17.2486H10.35C10.3498 17.5305 10.453 17.8026 10.6402 18.0133C10.8274 18.2241 11.0855 18.3587 11.3654 18.3917L11.5 18.3997C11.805 18.3997 12.0975 18.2786 12.3132 18.0629C12.5288 17.8473 12.65 17.5547 12.65 17.2497L12.8524 17.244C13.7489 17.1922 14.59 16.7928 15.1967 16.1308C15.8035 15.4687 16.1282 14.5962 16.1018 13.6985C16.0755 12.8009 15.7002 11.9489 15.0556 11.3236C14.411 10.6983 13.548 10.3489 12.65 10.3498V8.04982C13.0617 8.03602 13.4216 8.21082 13.6459 8.50751L13.7241 8.62366C13.8814 8.87741 14.1313 9.06001 14.4208 9.13287C14.7104 9.20572 15.0169 9.16311 15.2756 9.01405C15.5343 8.86499 15.7249 8.62116 15.807 8.33412C15.8892 8.04708 15.8565 7.73934 15.7159 7.47597C15.4225 6.9667 15.0039 6.54082 14.4997 6.23873C13.9956 5.93663 13.4226 5.76835 12.8351 5.74983H12.65C12.65 5.44484 12.5288 5.15233 12.3132 4.93667C12.0975 4.721 11.805 4.59984 11.5 4.59984ZM12.65 12.6498C12.955 12.6498 13.2475 12.7709 13.4632 12.9866C13.6788 13.2023 13.8 13.4948 13.8 13.7998C13.8 14.1048 13.6788 14.3973 13.4632 14.6129C13.2475 14.8286 12.955 14.9498 12.65 14.9498V12.6498ZM10.35 8.04982V10.3498C10.045 10.3498 9.75249 10.2286 9.53683 10.013C9.32116 9.79731 9.2 9.50481 9.2 9.19981C9.2 8.89481 9.32116 8.60231 9.53683 8.38664C9.75249 8.17098 10.045 8.04982 10.35 8.04982Z" fill="white"/>
</svg>
