<svg width="19" height="19" viewBox="0 0 19 19" fill="none" xmlns="http://www.w3.org/2000/svg">
<path d="M17.375 9.49995C17.1429 9.49995 16.9204 9.59213 16.7563 9.75623C16.5922 9.92032 16.5 10.1429 16.5 10.3749V15.6249C16.5 15.857 16.4078 16.0796 16.2437 16.2437C16.0796 16.4078 15.8571 16.4999 15.625 16.4999H3.375C3.14294 16.4999 2.92038 16.4078 2.75628 16.2437C2.59219 16.0796 2.5 15.857 2.5 15.6249V3.37495C2.5 3.14288 2.59219 2.92032 2.75628 2.75623C2.92038 2.59213 3.14294 2.49995 3.375 2.49995H8.625C8.85706 2.49995 9.07962 2.40776 9.24372 2.24367C9.40781 2.07957 9.5 1.85701 9.5 1.62495C9.5 1.39288 9.40781 1.17032 9.24372 1.00623C9.07962 0.842134 8.85706 0.749947 8.625 0.749947H3.375C2.67881 0.749947 2.01113 1.02651 1.51884 1.51879C1.02656 2.01107 0.75 2.67875 0.75 3.37495V15.6249C0.75 16.3211 1.02656 16.9888 1.51884 17.4811C2.01113 17.9734 2.67881 18.2499 3.375 18.2499H15.625C16.3212 18.2499 16.9889 17.9734 17.4812 17.4811C17.9734 16.9888 18.25 16.3211 18.25 15.6249V10.3749C18.25 10.1429 18.1578 9.92032 17.9937 9.75623C17.8296 9.59213 17.6071 9.49995 17.375 9.49995ZM4.25 10.1649V13.8749C4.25 14.107 4.34219 14.3296 4.50628 14.4937C4.67038 14.6578 4.89294 14.7499 5.125 14.7499H8.835C8.95016 14.7506 9.06431 14.7285 9.17092 14.685C9.27753 14.6415 9.37449 14.5773 9.45625 14.4962L15.5113 8.43245L17.9963 5.99995C18.0783 5.9186 18.1434 5.82183 18.1878 5.7152C18.2322 5.60857 18.2551 5.49421 18.2551 5.3787C18.2551 5.26319 18.2322 5.14882 18.1878 5.04219C18.1434 4.93556 18.0783 4.83879 17.9963 4.75745L14.2862 1.0037C14.2049 0.921684 14.1081 0.856589 14.0015 0.812167C13.8949 0.767744 13.7805 0.744873 13.665 0.744873C13.5495 0.744873 13.4351 0.767744 13.3285 0.812167C13.2219 0.856589 13.1251 0.921684 13.0437 1.0037L10.5763 3.47995L4.50375 9.5437C4.42265 9.62546 4.35849 9.72242 4.31495 9.82903C4.27141 9.93564 4.24933 10.0498 4.25 10.1649ZM13.665 2.8587L16.1413 5.33495L14.8988 6.57745L12.4225 4.1012L13.665 2.8587ZM6 10.5237L11.1888 5.33495L13.665 7.8112L8.47625 12.9999H6V10.5237Z" fill="#005397"/>
</svg>
