<svg width="80" height="80" viewBox="0 0 80 80" fill="none" xmlns="http://www.w3.org/2000/svg">
<rect x="1.5" y="1.5" width="77" height="77" rx="11.5" fill="#0064B5" stroke="#005397" stroke-width="3"/>
<path d="M42.5408 17.1736L42.5407 17.1736C41.8433 16.5468 40.9387 16.2 40.001 16.2C39.0633 16.2 38.1587 16.5468 37.4613 17.1736L37.4612 17.1736L26.4615 27.0598C26.0649 27.416 25.7476 27.8515 25.5303 28.3382C25.313 28.825 25.2004 29.352 25.2 29.885V29.8857V43.9992C25.2 45.0072 25.6003 45.9739 26.3129 46.6867C27.0255 47.3995 27.9921 47.8 29 47.8H33C34.0079 47.8 34.9745 47.3995 35.6871 46.6867C36.3997 45.9739 36.8 45.0072 36.8 43.9992V35.9972C36.8 35.944 36.8211 35.8931 36.8587 35.8555C36.8962 35.818 36.947 35.797 37 35.797H43C43.053 35.797 43.1038 35.818 43.1413 35.8555C43.1789 35.8931 43.2 35.944 43.2 35.9972V43.9992C43.2 45.0072 43.6003 45.9739 44.3129 46.6867C45.0255 47.3995 45.9921 47.8 47 47.8H51C52.0079 47.8 52.9745 47.3995 53.6871 46.6867C54.3997 45.9739 54.8 45.0072 54.8 43.9992V29.8857V29.8855C54.7999 29.3526 54.6877 28.8258 54.4708 28.339C54.254 27.8523 53.9372 27.4167 53.541 27.0603L53.5408 27.0601L42.5408 17.1736Z" fill="white" stroke="#005397" stroke-width="1.6"/>
<mask id="path-3-outside-1_269_2123" maskUnits="userSpaceOnUse" x="23" y="53" width="33" height="14" fill="black">
<rect fill="white" x="23" y="53" width="33" height="14"/>
<path d="M28.26 57.8L27 65H25.19L26.46 57.8H28.26ZM35.2327 57.8L33.9727 65H32.1627L30.9027 61.06L30.2227 65H28.4127L29.6827 57.8H31.5427L32.7827 61.48L33.4327 57.8H35.2327ZM38.4553 57.8L37.1953 65H35.3853L36.6553 57.8H38.4553ZM38.4153 56.93H36.9353L38.5753 54.54H40.3753L38.4153 56.93ZM41.138 65.14C40.1846 65.14 39.5246 64.9333 39.158 64.52C38.9046 64.2267 38.778 63.8167 38.778 63.29C38.778 63.0633 38.8013 62.82 38.848 62.56L39.258 60.26C39.558 58.5733 40.6413 57.73 42.508 57.73C43.2813 57.73 43.868 57.8967 44.268 58.23C44.668 58.5567 44.868 59.0067 44.868 59.58C44.868 59.8467 44.828 60.1133 44.748 60.38C44.6746 60.64 44.6013 60.8333 44.528 60.96L44.418 61.16H42.648C42.868 60.9067 42.978 60.5467 42.978 60.08C42.978 59.8333 42.9146 59.64 42.788 59.5C42.6613 59.3533 42.4746 59.28 42.228 59.28C41.5546 59.28 41.1546 59.6533 41.028 60.4L40.678 62.42C40.6446 62.5933 40.628 62.7633 40.628 62.93C40.628 63.37 40.8913 63.59 41.418 63.59C42.0513 63.59 42.4313 63.2333 42.558 62.52H44.358L44.308 62.81C44.0413 64.3633 42.9846 65.14 41.138 65.14ZM48.1526 57.8L46.8926 65H45.0826L46.3526 57.8H48.1526ZM52.1952 57.73C53.8019 57.73 54.6052 58.3867 54.6052 59.7C54.6052 59.92 54.5819 60.1567 54.5352 60.41L54.1852 62.41C54.0252 63.3367 53.6786 64.0233 53.1452 64.47C52.6119 64.9167 51.8619 65.14 50.8952 65.14C49.9286 65.14 49.2552 64.9167 48.8752 64.47C48.6152 64.1633 48.4852 63.74 48.4852 63.2C48.4852 62.96 48.5119 62.6967 48.5652 62.41L48.9152 60.41C49.2286 58.6233 50.3219 57.73 52.1952 57.73ZM51.1652 63.59C51.4986 63.59 51.7652 63.5033 51.9652 63.33C52.1652 63.1567 52.3052 62.8367 52.3852 62.37L52.7252 60.45C52.7452 60.3167 52.7552 60.1967 52.7552 60.09C52.7552 59.55 52.4819 59.28 51.9352 59.28C51.2486 59.2933 50.8386 59.6833 50.7052 60.45L50.3652 62.37C50.3386 62.5367 50.3252 62.71 50.3252 62.89C50.3252 63.3567 50.6052 63.59 51.1652 63.59Z"/>
</mask>
<path d="M28.26 57.8L27 65H25.19L26.46 57.8H28.26ZM35.2327 57.8L33.9727 65H32.1627L30.9027 61.06L30.2227 65H28.4127L29.6827 57.8H31.5427L32.7827 61.48L33.4327 57.8H35.2327ZM38.4553 57.8L37.1953 65H35.3853L36.6553 57.8H38.4553ZM38.4153 56.93H36.9353L38.5753 54.54H40.3753L38.4153 56.93ZM41.138 65.14C40.1846 65.14 39.5246 64.9333 39.158 64.52C38.9046 64.2267 38.778 63.8167 38.778 63.29C38.778 63.0633 38.8013 62.82 38.848 62.56L39.258 60.26C39.558 58.5733 40.6413 57.73 42.508 57.73C43.2813 57.73 43.868 57.8967 44.268 58.23C44.668 58.5567 44.868 59.0067 44.868 59.58C44.868 59.8467 44.828 60.1133 44.748 60.38C44.6746 60.64 44.6013 60.8333 44.528 60.96L44.418 61.16H42.648C42.868 60.9067 42.978 60.5467 42.978 60.08C42.978 59.8333 42.9146 59.64 42.788 59.5C42.6613 59.3533 42.4746 59.28 42.228 59.28C41.5546 59.28 41.1546 59.6533 41.028 60.4L40.678 62.42C40.6446 62.5933 40.628 62.7633 40.628 62.93C40.628 63.37 40.8913 63.59 41.418 63.59C42.0513 63.59 42.4313 63.2333 42.558 62.52H44.358L44.308 62.81C44.0413 64.3633 42.9846 65.14 41.138 65.14ZM48.1526 57.8L46.8926 65H45.0826L46.3526 57.8H48.1526ZM52.1952 57.73C53.8019 57.73 54.6052 58.3867 54.6052 59.7C54.6052 59.92 54.5819 60.1567 54.5352 60.41L54.1852 62.41C54.0252 63.3367 53.6786 64.0233 53.1452 64.47C52.6119 64.9167 51.8619 65.14 50.8952 65.14C49.9286 65.14 49.2552 64.9167 48.8752 64.47C48.6152 64.1633 48.4852 63.74 48.4852 63.2C48.4852 62.96 48.5119 62.6967 48.5652 62.41L48.9152 60.41C49.2286 58.6233 50.3219 57.73 52.1952 57.73ZM51.1652 63.59C51.4986 63.59 51.7652 63.5033 51.9652 63.33C52.1652 63.1567 52.3052 62.8367 52.3852 62.37L52.7252 60.45C52.7452 60.3167 52.7552 60.1967 52.7552 60.09C52.7552 59.55 52.4819 59.28 51.9352 59.28C51.2486 59.2933 50.8386 59.6833 50.7052 60.45L50.3652 62.37C50.3386 62.5367 50.3252 62.71 50.3252 62.89C50.3252 63.3567 50.6052 63.59 51.1652 63.59Z" fill="white"/>
<path d="M28.26 57.8L29.245 57.9724L29.4502 56.8H28.26V57.8ZM27 65V66H27.8402L27.985 65.1724L27 65ZM25.19 65L24.2052 64.8263L23.9982 66H25.19V65ZM26.46 57.8V56.8H25.621L25.4752 57.6263L26.46 57.8ZM27.275 57.6276L26.015 64.8276L27.985 65.1724L29.245 57.9724L27.275 57.6276ZM27 64H25.19V66H27V64ZM26.1748 65.1737L27.4448 57.9737L25.4752 57.6263L24.2052 64.8263L26.1748 65.1737ZM26.46 58.8H28.26V56.8H26.46V58.8ZM35.2327 57.8L36.2177 57.9724L36.4229 56.8H35.2327V57.8ZM33.9727 65V66H34.8129L34.9577 65.1724L33.9727 65ZM32.1627 65L31.2102 65.3046L31.4326 66H32.1627V65ZM30.9027 61.06L31.8551 60.7554L29.9172 60.8899L30.9027 61.06ZM30.2227 65V66H31.0649L31.2081 65.1701L30.2227 65ZM28.4127 65L27.4279 64.8263L27.2208 66H28.4127V65ZM29.6827 57.8V56.8H28.8436L28.6979 57.6263L29.6827 57.8ZM31.5427 57.8L32.4903 57.4807L32.2609 56.8H31.5427V57.8ZM32.7827 61.48L31.835 61.7993L33.7674 61.6539L32.7827 61.48ZM33.4327 57.8V56.8H32.5938L32.4479 57.6261L33.4327 57.8ZM34.2476 57.6276L32.9876 64.8276L34.9577 65.1724L36.2177 57.9724L34.2476 57.6276ZM33.9727 64H32.1627V66H33.9727V64ZM33.1151 64.6954L31.8551 60.7554L29.9502 61.3646L31.2102 65.3046L33.1151 64.6954ZM29.9172 60.8899L29.2372 64.8299L31.2081 65.1701L31.8881 61.2301L29.9172 60.8899ZM30.2227 64H28.4127V66H30.2227V64ZM29.3975 65.1737L30.6675 57.9737L28.6979 57.6263L27.4279 64.8263L29.3975 65.1737ZM29.6827 58.8H31.5427V56.8H29.6827V58.8ZM30.595 58.1193L31.835 61.7993L33.7303 61.1607L32.4903 57.4807L30.595 58.1193ZM33.7674 61.6539L34.4174 57.9739L32.4479 57.6261L31.7979 61.3061L33.7674 61.6539ZM33.4327 58.8H35.2327V56.8H33.4327V58.8ZM38.4553 57.8L39.4403 57.9724L39.6455 56.8H38.4553V57.8ZM37.1953 65V66H38.0355L38.1803 65.1724L37.1953 65ZM35.3853 65L34.4005 64.8263L34.1935 66H35.3853V65ZM36.6553 57.8V56.8H35.8163L35.6705 57.6263L36.6553 57.8ZM38.4153 56.93V57.93H38.8885L39.1885 57.5641L38.4153 56.93ZM36.9353 56.93L36.1108 56.3642L35.0363 57.93H36.9353V56.93ZM38.5753 54.54V53.54H38.0487L37.7508 53.9742L38.5753 54.54ZM40.3753 54.54L41.1485 55.1741L42.4887 53.54H40.3753V54.54ZM37.4703 57.6276L36.2103 64.8276L38.1803 65.1724L39.4403 57.9724L37.4703 57.6276ZM37.1953 64H35.3853V66H37.1953V64ZM36.3701 65.1737L37.6401 57.9737L35.6705 57.6263L34.4005 64.8263L36.3701 65.1737ZM36.6553 58.8H38.4553V56.8H36.6553V58.8ZM38.4153 55.93H36.9353V57.93H38.4153V55.93ZM37.7599 57.4958L39.3999 55.1058L37.7508 53.9742L36.1108 56.3642L37.7599 57.4958ZM38.5753 55.54H40.3753V53.54H38.5753V55.54ZM39.6021 53.9059L37.6421 56.2959L39.1885 57.5641L41.1485 55.1741L39.6021 53.9059ZM39.158 64.52L38.4011 65.1737L38.4099 65.1836L39.158 64.52ZM38.848 62.56L39.8322 62.7367L39.8324 62.7355L38.848 62.56ZM39.258 60.26L40.2424 60.4355L40.2425 60.4351L39.258 60.26ZM44.268 58.23L43.6278 58.9983L43.6354 59.0045L44.268 58.23ZM44.748 60.38L43.7901 60.0927L43.7878 60.1006L43.7855 60.1085L44.748 60.38ZM44.528 60.96L43.6625 60.459L43.657 60.4685L43.6518 60.4781L44.528 60.96ZM44.418 61.16V62.16H45.0092L45.2942 61.6419L44.418 61.16ZM42.648 61.16L41.8929 60.5043L40.4551 62.16H42.648V61.16ZM42.788 59.5L42.0311 60.1536L42.0387 60.1624L42.0464 60.1709L42.788 59.5ZM41.028 60.4L42.0133 60.5707L42.0139 60.5673L41.028 60.4ZM40.678 62.42L41.66 62.6088L41.6617 62.5998L41.6633 62.5907L40.678 62.42ZM42.558 62.52V61.52H41.7199L41.5734 62.3452L42.558 62.52ZM44.358 62.52L45.3434 62.6899L45.5451 61.52H44.358V62.52ZM44.308 62.81L43.3225 62.6401L43.3224 62.6408L44.308 62.81ZM41.138 64.14C40.2739 64.14 39.9829 63.943 39.906 63.8564L38.4099 65.1836C39.0663 65.9236 40.0954 66.14 41.138 66.14V64.14ZM39.9148 63.8664C39.8669 63.8109 39.778 63.6632 39.778 63.29H37.778C37.778 63.9702 37.9424 64.6424 38.4011 65.1736L39.9148 63.8664ZM39.778 63.29C39.778 63.1313 39.7944 62.9477 39.8322 62.7367L37.8637 62.3833C37.8082 62.6923 37.778 62.9953 37.778 63.29H39.778ZM39.8324 62.7355L40.2424 60.4355L38.2735 60.0845L37.8635 62.3845L39.8324 62.7355ZM40.2425 60.4351C40.3604 59.7724 40.6082 59.3863 40.9097 59.1516C41.2221 58.9084 41.7179 58.73 42.508 58.73V56.73C41.4314 56.73 40.4522 56.9732 39.6812 57.5734C38.8994 58.182 38.4555 59.0609 38.2734 60.0849L40.2425 60.4351ZM42.508 58.73C43.1571 58.73 43.4768 58.8724 43.6278 58.9982L44.9082 57.4618C44.2591 56.9209 43.4055 56.73 42.508 56.73V58.73ZM43.6354 59.0045C43.7753 59.1188 43.868 59.2694 43.868 59.58H45.868C45.868 58.7439 45.5606 57.9946 44.9005 57.4555L43.6354 59.0045ZM43.868 59.58C43.868 59.7451 43.8434 59.9151 43.7901 60.0927L45.7058 60.6673C45.8125 60.3116 45.868 59.9482 45.868 59.58H43.868ZM43.7855 60.1085C43.7545 60.2184 43.7267 60.3028 43.703 60.3653C43.6913 60.3962 43.6815 60.4194 43.6739 60.4358C43.6662 60.4526 43.6622 60.4595 43.6625 60.459L45.3934 61.461C45.5299 61.2253 45.6301 60.9363 45.7104 60.6515L43.7855 60.1085ZM43.6518 60.4781L43.5418 60.6781L45.2942 61.6419L45.4042 61.4419L43.6518 60.4781ZM44.418 60.16H42.648V62.16H44.418V60.16ZM43.403 61.8157C43.8332 61.3203 43.978 60.6937 43.978 60.08H41.978C41.978 60.3996 41.9027 60.4931 41.8929 60.5043L43.403 61.8157ZM43.978 60.08C43.978 59.6633 43.8683 59.2035 43.5295 58.8291L42.0464 60.1709C42.0086 60.1291 41.9887 60.0873 41.9802 60.0613C41.9728 60.0388 41.978 60.0407 41.978 60.08H43.978ZM43.5448 58.8464C43.1787 58.4225 42.68 58.28 42.228 58.28V60.28C42.254 60.28 42.2338 60.284 42.1873 60.2658C42.1352 60.2453 42.0776 60.2074 42.0311 60.1536L43.5448 58.8464ZM42.228 58.28C41.6994 58.28 41.1663 58.4317 40.7407 58.8289C40.3289 59.2132 40.1282 59.7248 40.0421 60.2327L42.0139 60.5673C42.0544 60.3285 42.117 60.2801 42.1053 60.2911C42.0996 60.2964 42.0949 60.2972 42.1027 60.2945C42.1138 60.2907 42.1513 60.28 42.228 60.28V58.28ZM40.0427 60.2293L39.6926 62.2493L41.6633 62.5907L42.0133 60.5707L40.0427 60.2293ZM39.696 62.2312C39.6514 62.4631 39.628 62.6963 39.628 62.93H41.628C41.628 62.8303 41.6379 62.7236 41.66 62.6088L39.696 62.2312ZM39.628 62.93C39.628 63.3561 39.764 63.8413 40.1843 64.1924C40.5702 64.5148 41.0399 64.59 41.418 64.59V62.59C41.2694 62.59 41.3441 62.5552 41.4666 62.6576C41.5327 62.7128 41.5798 62.7822 41.6061 62.8482C41.63 62.908 41.628 62.9423 41.628 62.93H39.628ZM41.418 64.59C41.9311 64.59 42.4487 64.4399 42.8623 64.0516C43.2605 63.6779 43.4559 63.1828 43.5426 62.6948L41.5734 62.3452C41.5334 62.5705 41.4755 62.6104 41.4936 62.5934C41.4971 62.5901 41.5018 62.5865 41.507 62.5833C41.5121 62.5802 41.5148 62.5794 41.5135 62.5798C41.5106 62.5808 41.483 62.59 41.418 62.59V64.59ZM42.558 63.52H44.358V61.52H42.558V63.52ZM43.3725 62.3501L43.3225 62.6401L45.2934 62.9799L45.3434 62.6899L43.3725 62.3501ZM43.3224 62.6408C43.2234 63.2171 43.0022 63.5467 42.7232 63.7517C42.424 63.9717 41.9327 64.14 41.138 64.14V66.14C42.1899 66.14 43.1503 65.92 43.9077 65.3633C44.6854 64.7916 45.1258 63.9562 45.2936 62.9792L43.3224 62.6408ZM48.1526 57.8L49.1376 57.9724L49.3428 56.8H48.1526V57.8ZM46.8926 65V66H47.7328L47.8776 65.1724L46.8926 65ZM45.0826 65L44.0978 64.8263L43.8908 66H45.0826V65ZM46.3526 57.8V56.8H45.5135L45.3678 57.6263L46.3526 57.8ZM47.1675 57.6276L45.9075 64.8276L47.8776 65.1724L49.1376 57.9724L47.1675 57.6276ZM46.8926 64H45.0826V66H46.8926V64ZM46.0674 65.1737L47.3374 57.9737L45.3678 57.6263L44.0978 64.8263L46.0674 65.1737ZM46.3526 58.8H48.1526V56.8H46.3526V58.8ZM54.5352 60.41L53.5517 60.2288L53.5502 60.2376L54.5352 60.41ZM54.1852 62.41L53.2002 62.2376L53.1998 62.2399L54.1852 62.41ZM53.1452 64.47L53.7873 65.2366L53.1452 64.47ZM48.8752 64.47L48.1125 65.1167L48.1136 65.118L48.8752 64.47ZM48.5652 62.41L49.5484 62.5929L49.5503 62.5824L48.5652 62.41ZM48.9152 60.41L47.9303 60.2373L47.9302 60.2376L48.9152 60.41ZM51.9652 63.33L51.3103 62.5743L51.9652 63.33ZM52.3852 62.37L51.4005 62.1956L51.3996 62.201L52.3852 62.37ZM52.7252 60.45L53.7099 60.6244L53.7122 60.6114L53.7142 60.5983L52.7252 60.45ZM51.9352 59.28V58.28H51.9255L51.9158 58.2802L51.9352 59.28ZM50.7052 60.45L51.6899 60.6244L51.6904 60.6213L50.7052 60.45ZM50.3652 62.37L49.3806 62.1956L49.3791 62.2038L49.3778 62.212L50.3652 62.37ZM52.1952 58.73C52.8879 58.73 53.2217 58.8756 53.3698 58.9967C53.4794 59.0863 53.6052 59.2567 53.6052 59.7H55.6052C55.6052 58.83 55.3294 58.0153 54.6356 57.4483C53.9805 56.9127 53.1093 56.73 52.1952 56.73V58.73ZM53.6052 59.7C53.6052 59.85 53.5893 60.0254 53.5518 60.2288L55.5187 60.5912C55.5746 60.2879 55.6052 59.99 55.6052 59.7H53.6052ZM53.5502 60.2376L53.2002 62.2376L55.1703 62.5824L55.5203 60.5824L53.5502 60.2376ZM53.1998 62.2399C53.0659 63.0156 52.7999 63.4548 52.5032 63.7034L53.7873 65.2366C54.5572 64.5919 54.9846 63.6577 55.1707 62.5801L53.1998 62.2399ZM52.5032 63.7034C52.2089 63.9498 51.7179 64.14 50.8952 64.14V66.14C52.0059 66.14 53.0149 65.8835 53.7873 65.2366L52.5032 63.7034ZM50.8952 64.14C50.0365 64.14 49.7329 63.9349 49.6369 63.822L48.1136 65.118C48.7775 65.8984 49.8206 66.14 50.8952 66.14V64.14ZM49.638 63.8233C49.5768 63.7512 49.4852 63.5849 49.4852 63.2H47.4852C47.4852 63.8951 47.6536 64.5755 48.1125 65.1167L49.638 63.8233ZM49.4852 63.2C49.4852 63.0328 49.504 62.8316 49.5484 62.5929L47.5821 62.2271C47.5198 62.5617 47.4852 62.8872 47.4852 63.2H49.4852ZM49.5503 62.5824L49.9003 60.5824L47.9302 60.2376L47.5802 62.2376L49.5503 62.5824ZM49.9002 60.5827C50.0275 59.8568 50.2899 59.4302 50.603 59.1744C50.9201 58.9153 51.4134 58.73 52.1952 58.73V56.73C51.1037 56.73 50.1137 56.9914 49.3375 57.6256C48.5572 58.2632 48.1163 59.1765 47.9303 60.2373L49.9002 60.5827ZM51.1652 64.59C51.6748 64.59 52.195 64.4542 52.6202 64.0857L51.3103 62.5743C51.3173 62.5683 51.32 62.5695 51.3061 62.574C51.2894 62.5794 51.2462 62.59 51.1652 62.59V64.59ZM52.6202 64.0857C53.0874 63.6807 53.2793 63.0732 53.3709 62.539L51.3996 62.201C51.3688 62.3808 51.3325 62.4943 51.3041 62.5592C51.2755 62.6246 51.268 62.611 51.3103 62.5743L52.6202 64.0857ZM53.3699 62.5444L53.7099 60.6244L51.7406 60.2756L51.4006 62.1956L53.3699 62.5444ZM53.7142 60.5983C53.7397 60.4281 53.7552 60.2573 53.7552 60.09H51.7552C51.7552 60.1361 51.7508 60.2053 51.7363 60.3017L53.7142 60.5983ZM53.7552 60.09C53.7552 59.6627 53.646 59.1593 53.253 58.7711C52.8622 58.3851 52.3596 58.28 51.9352 58.28V60.28C52.0575 60.28 51.9649 60.3099 51.8475 60.1939C51.7928 60.1399 51.7665 60.0851 51.7565 60.0554C51.7481 60.0306 51.7552 60.0364 51.7552 60.09H53.7552ZM51.9158 58.2802C51.3789 58.2906 50.8465 58.4556 50.4235 58.8579C50.0142 59.2473 49.8099 59.7617 49.72 60.2787L51.6904 60.6213C51.7339 60.3716 51.8013 60.3077 51.8019 60.3071C51.8023 60.3067 51.804 60.304 51.8173 60.2992C51.8334 60.2932 51.8752 60.2814 51.9546 60.2798L51.9158 58.2802ZM49.7206 60.2756L49.3806 62.1956L51.3499 62.5444L51.6899 60.6244L49.7206 60.2756ZM49.3778 62.212C49.3422 62.4342 49.3252 62.6606 49.3252 62.89H51.3252C51.3252 62.7594 51.3349 62.6391 51.3527 62.528L49.3778 62.212ZM49.3252 62.89C49.3252 63.3303 49.466 63.8257 49.8951 64.1832C50.2892 64.5116 50.771 64.59 51.1652 64.59V62.59C51.0914 62.59 51.0626 62.582 51.0654 62.5827C51.0707 62.5842 51.1173 62.5983 51.1754 62.6468C51.2374 62.6985 51.2817 62.7637 51.3062 62.8249C51.3282 62.8799 51.3252 62.9087 51.3252 62.89H49.3252Z" fill="#005397" mask="url(#path-3-outside-1_269_2123)"/>
</svg>
