<svg width="38" height="38" viewBox="0 0 38 38" fill="none" xmlns="http://www.w3.org/2000/svg">
<circle cx="19" cy="19" r="17.5" fill="#0064B5" stroke="#005397" stroke-width="3"/>
<g filter="url(#filter0_d_144_307)">
<path d="M14.5 26C14.0875 26 13.7345 25.8602 13.441 25.5807C13.1475 25.3012 13.0005 24.9648 13 24.5714V17.4286C13 17.0357 13.147 16.6995 13.441 16.42C13.735 16.1405 14.088 16.0005 14.5 16H15.25V14.5714C15.25 13.5833 15.6158 12.7412 16.3472 12.045C17.0788 11.3488 17.963 11.0005 19 11C20.0375 11 20.922 11.3483 21.6535 12.045C22.385 12.7417 22.7505 13.5838 22.75 14.5714V16H23.5C23.9125 16 24.2657 16.14 24.5597 16.42C24.8537 16.7 25.0005 17.0362 25 17.4286V24.5714C25 24.9643 24.8532 25.3007 24.5597 25.5807C24.2662 25.8607 23.913 26.0005 23.5 26H14.5ZM19 22.4286C19.4125 22.4286 19.7657 22.2888 20.0597 22.0093C20.3537 21.7298 20.5005 21.3933 20.5 21C20.5 20.6071 20.3532 20.271 20.0597 19.9914C19.7662 19.7119 19.413 19.5719 19 19.5714C18.5875 19.5714 18.2345 19.7114 17.941 19.9914C17.6475 20.2714 17.5005 20.6076 17.5 21C17.5 21.3929 17.647 21.7293 17.941 22.0093C18.235 22.2893 18.588 22.429 19 22.4286ZM16.75 16H21.25V14.5714C21.25 13.9762 21.0312 13.4702 20.5937 13.0536C20.1562 12.6369 19.625 12.4286 19 12.4286C18.375 12.4286 17.8437 12.6369 17.4062 13.0536C16.9687 13.4702 16.75 13.9762 16.75 14.5714V16Z" fill="white"/>
</g>
<defs>
<filter id="filter0_d_144_307" x="13" y="11" width="12" height="15.5" filterUnits="userSpaceOnUse" color-interpolation-filters="sRGB">
<feFlood flood-opacity="0" result="BackgroundImageFix"/>
<feColorMatrix in="SourceAlpha" type="matrix" values="0 0 0 0 0 0 0 0 0 0 0 0 0 0 0 0 0 0 127 0" result="hardAlpha"/>
<feOffset dy="0.5"/>
<feComposite in2="hardAlpha" operator="out"/>
<feColorMatrix type="matrix" values="0 0 0 0 0 0 0 0 0 0 0 0 0 0 0 0 0 0 0.25 0"/>
<feBlend mode="normal" in2="BackgroundImageFix" result="effect1_dropShadow_144_307"/>
<feBlend mode="normal" in="SourceGraphic" in2="effect1_dropShadow_144_307" result="shape"/>
</filter>
</defs>
</svg>
