<svg width="18" height="18" viewBox="0 0 18 18" fill="none" xmlns="http://www.w3.org/2000/svg">
<path id="Vector" fill-rule="evenodd" clip-rule="evenodd" d="M8.89416 2.4811C8.40555 2.47227 7.91999 2.55989 7.46528 2.73892C7.01057 2.91796 6.59563 3.18491 6.24421 3.52448C5.89278 3.86406 5.61178 4.2696 5.41727 4.7179C5.22276 5.1662 5.11857 5.64845 5.11066 6.13706V11.247C5.11066 11.557 4.98751 11.8543 4.76831 12.0735C4.54911 12.2926 4.25182 12.4158 3.94182 12.4158H2.48079C2.0158 12.4158 1.56985 12.2311 1.24105 11.9023C0.912256 11.5735 0.727539 11.1276 0.727539 10.6626L0.727539 8.32503C0.727539 7.86006 0.912256 7.41413 1.24105 7.08534C1.56985 6.75656 2.0158 6.57185 2.48079 6.57185H3.35741V6.11602C3.36807 5.39768 3.52015 4.68847 3.80495 4.0289C4.08974 3.36934 4.50169 2.77233 5.01725 2.27199C5.53281 1.77164 6.14189 1.37775 6.80971 1.11281C7.47752 0.847881 8.19099 0.717091 8.90936 0.727916C9.62773 0.717091 10.3412 0.847881 11.009 1.11281C11.6768 1.37775 12.2859 1.77164 12.8015 2.27199C13.317 2.77233 13.729 3.36934 14.0138 4.0289C14.2986 4.68847 14.4506 5.39768 14.4613 6.11602V6.57185H15.3379C15.8029 6.57185 16.2489 6.75656 16.5777 7.08534C16.9065 7.41413 17.0912 7.86006 17.0912 8.32503V10.6626C17.0912 11.1276 16.9065 11.5735 16.5777 11.9023C16.2489 12.2311 15.8029 12.4158 15.3379 12.4158H14.4613V13.0002C14.4615 13.79 14.1708 14.5522 13.6448 15.1414C13.1187 15.7306 12.3942 16.1054 11.6094 16.1945C11.4569 16.4666 11.2347 16.6931 10.9656 16.8507C10.6964 17.0083 10.3901 17.0912 10.0782 17.0909H8.32494C7.85995 17.0909 7.41401 16.9062 7.08521 16.5774C6.75641 16.2487 6.57169 15.8027 6.57169 15.3378C6.57169 14.8728 6.75641 14.4268 7.08521 14.0981C7.41401 13.7693 7.85995 13.5846 8.32494 13.5846H10.0782C10.7117 13.5846 11.2669 13.92 11.5743 14.4238C11.8965 14.3497 12.184 14.1686 12.3899 13.9101C12.5958 13.6515 12.708 13.3307 12.7081 13.0002V6.13589C12.7 5.64477 12.5948 5.1601 12.3983 4.70992C12.2018 4.25973 11.918 3.85295 11.5634 3.5131C11.2087 3.17324 10.7902 2.90705 10.3321 2.72992C9.87393 2.55278 9.3852 2.46821 8.89416 2.4811Z" fill="#005397"/>
</svg>
