<svg width="23" height="23" viewBox="0 0 23 23" fill="none" xmlns="http://www.w3.org/2000/svg">
<path fill-rule="evenodd" clip-rule="evenodd" d="M11.5 -5.02681e-07C16.9211 -2.65717e-07 19.6317 -1.47235e-07 21.3164 1.6836C23 3.3695 23 6.0789 23 11.5C23 16.9211 23 19.6317 21.3164 21.3153C19.6305 23 16.9211 23 11.5 23C6.0789 23 3.36835 23 1.68475 21.3153C2.95652e-06 19.6328 3.07505e-06 16.9211 3.31202e-06 11.5C3.54898e-06 6.0789 3.66746e-06 3.36835 1.68475 1.6836C3.3672 -8.58177e-07 6.0789 -7.39645e-07 11.5 -5.02681e-07ZM10.0625 17.25C10.0624 17.4255 10.0088 17.5969 9.90882 17.7412C9.8088 17.8854 9.66715 17.9957 9.50278 18.0573C9.33841 18.119 9.15915 18.129 8.98894 18.086C8.81874 18.0431 8.66569 17.9492 8.55025 17.817L5.10025 13.8644C4.94973 13.6921 4.87384 13.467 4.88926 13.2387C4.90468 13.0105 5.01015 12.7976 5.18248 12.6471C5.3548 12.4966 5.57986 12.4207 5.80814 12.4361C6.03643 12.4516 6.24923 12.557 6.39975 12.7294L8.3375 14.95L8.3375 5.75C8.3375 5.52125 8.42837 5.30187 8.59012 5.14012C8.75187 4.97837 8.97125 4.8875 9.2 4.8875C9.42875 4.8875 9.64813 4.97837 9.80988 5.14012C9.97163 5.30187 10.0625 5.52125 10.0625 5.75L10.0625 17.25ZM17.817 10.3535C17.6446 10.5038 17.4196 10.5795 17.1915 10.564C16.9633 10.5484 16.7506 10.4429 16.6003 10.2707L14.6625 8.05L14.6625 17.25C14.6625 17.4787 14.5716 17.6981 14.4099 17.8599C14.2481 18.0216 14.0287 18.1125 13.8 18.1125C13.5713 18.1125 13.3519 18.0216 13.1901 17.8599C13.0284 17.6981 12.9375 17.4787 12.9375 17.25L12.9375 5.75C12.9376 5.57446 12.9912 5.40311 13.0912 5.25885C13.1912 5.11459 13.3329 5.00428 13.4972 4.94265C13.6616 4.88103 13.8409 4.87103 14.0111 4.91399C14.1813 4.95694 14.3343 5.05081 14.4498 5.18305L17.8998 9.1356C17.9744 9.22097 18.0314 9.3202 18.0676 9.42763C18.1038 9.53506 18.1185 9.64858 18.1108 9.76169C18.1031 9.8748 18.0732 9.98529 18.0228 10.0868C17.9724 10.1884 17.9024 10.279 17.817 10.3535Z" fill="white"/>
</svg>
