<svg width="27" height="27" viewBox="0 0 27 27" fill="none" xmlns="http://www.w3.org/2000/svg">
<g id="ic:baseline-pix">
<g id="Vector">
<path d="M17.1837 17.9228L13.9202 14.6592C13.8009 14.5399 13.6599 14.5182 13.584 14.5182C13.5081 14.5182 13.3672 14.5399 13.2479 14.6592L9.9735 17.9336C9.60485 18.3023 9.0302 18.8986 7.11108 18.8986L11.1336 22.9103C11.7435 23.5194 12.5703 23.8616 13.4322 23.8616C14.2942 23.8616 15.121 23.5194 15.7308 22.9103L19.7642 18.8878C18.7776 18.8878 17.9536 18.6926 17.1837 17.9228ZM9.9735 8.11034L13.2479 11.3848C13.3347 11.4715 13.4648 11.5257 13.584 11.5257C13.7033 11.5257 13.8334 11.4715 13.9202 11.3848L17.1621 8.14287C17.9319 7.34053 18.8101 7.1562 19.7968 7.1562L15.7634 3.13365C15.1535 2.52452 14.3268 2.18237 13.4648 2.18237C12.6028 2.18237 11.7761 2.52452 11.1662 3.13365L7.14361 7.14536C9.05189 7.14536 9.63738 7.77422 9.9735 8.11034Z" fill="white"/>
<path d="M5.90167 18.3986H7.11108C8.01978 18.3986 8.5686 18.2573 8.91692 18.0991C9.25416 17.9459 9.43607 17.764 9.6124 17.5876L9.61994 17.5801L12.8944 14.3056C13.1376 14.0624 13.4254 14.0182 13.584 14.0182C13.7427 14.0182 14.0305 14.0624 14.2737 14.3056L17.5373 17.5692C18.1831 18.215 18.8602 18.3878 19.7642 18.3878H20.9737L20.1173 19.2418L16.0842 23.2641C15.3805 23.9669 14.4267 24.3616 13.4322 24.3616C12.4379 24.3616 11.4842 23.9669 10.7806 23.2643C10.7805 23.2643 10.7804 23.2642 10.7803 23.2641M5.90167 18.3986L11.1336 22.9103L10.7803 23.2641M5.90167 18.3986L6.75801 19.2526L10.7803 23.2641M5.90167 18.3986L10.7803 23.2641M12.8944 11.7383L13.2479 11.3848L12.8944 11.7383C13.073 11.9169 13.3295 12.0257 13.584 12.0257C13.8386 12.0257 14.0951 11.9169 14.2737 11.7383L13.9202 11.3848L14.2737 11.7383L17.5156 8.49642L17.5157 8.4965L17.5228 8.48903C18.1615 7.82338 18.8818 7.6562 19.7968 7.6562H21.0062L20.1498 6.80218L16.1167 2.77988C15.4131 2.07711 14.4593 1.68237 13.4648 1.68237C12.4704 1.68237 11.5167 2.07701 10.8131 2.77962C10.8131 2.77965 10.813 2.77969 10.813 2.77972C10.8129 2.77977 10.8129 2.77982 10.8128 2.77988L6.79054 6.79133L5.9342 7.64536H7.14361C8.04294 7.64536 8.59071 7.79345 8.93667 7.9549C9.26459 8.10793 9.44132 8.28497 9.60095 8.44488C9.60731 8.45125 9.61363 8.45758 9.61994 8.46389L12.8944 11.7383Z" stroke="#884100" stroke-opacity="0.25"/>
</g>
<g id="Vector_2">
<path d="M23.3206 10.6908L20.8811 8.24043H19.5149C18.9294 8.24043 18.3439 8.47897 17.9427 8.90183L14.69 12.1546C14.3864 12.4582 13.9852 12.6099 13.5841 12.6099C13.171 12.6041 12.7756 12.4413 12.4781 12.1546L9.20372 8.8693C8.7917 8.45728 8.22789 8.21875 7.63156 8.21875H6.03772L3.55479 10.7125C2.94566 11.3224 2.60352 12.1491 2.60352 13.0111C2.60352 13.8731 2.94566 14.6998 3.55479 15.3097L6.03772 17.8035H7.6424C8.22789 17.8035 8.7917 17.565 9.21456 17.1529L12.489 13.8785C12.7926 13.5749 13.1937 13.4231 13.5949 13.4231C13.9961 13.4231 14.3973 13.5749 14.7008 13.8785L17.9644 17.1421C18.3764 17.5541 18.9403 17.7927 19.5366 17.7927H20.9027L23.3423 15.3423C23.954 14.7214 24.2951 13.8836 24.291 13.0121C24.2869 12.1405 23.9381 11.306 23.3206 10.6908Z" fill="white"/>
<path d="M3.20076 15.6628C3.20084 15.6629 3.20093 15.663 3.20102 15.6631L5.68339 18.1563L5.82997 18.3035H6.03772H7.6424C8.36411 18.3035 9.05155 18.0099 9.56349 17.5111L9.56352 17.5111L9.56811 17.5065L12.8425 14.2321C13.0475 14.0271 13.3193 13.9231 13.5949 13.9231C13.8706 13.9231 14.1424 14.0271 14.3473 14.2321L17.6109 17.4957C18.1158 18.0006 18.8064 18.2927 19.5366 18.2927H20.9027H21.1105L21.2571 18.1454L23.6966 15.695L23.6985 15.6932C24.4029 14.9782 24.7957 14.0134 24.791 13.0097C24.7863 12.0064 24.3848 11.0457 23.6743 10.3374C23.674 10.3371 23.6738 10.3369 23.6735 10.3366L21.2354 7.88767L21.0888 7.74043H20.8811H19.5149C18.8024 7.74043 18.0855 8.02792 17.5848 8.55266L14.3365 11.801C14.1324 12.0051 13.862 12.1091 13.5876 12.1099C13.3043 12.1051 13.0332 11.9936 12.8284 11.7977L9.55786 8.51633L9.55727 8.51574C9.05237 8.01085 8.36175 7.71875 7.63156 7.71875H6.03772H5.82997L5.68339 7.86597L3.20102 10.3592C3.20092 10.3593 3.20082 10.3594 3.20072 10.3595C2.49814 11.0631 2.10352 12.0168 2.10352 13.0111C2.10352 14.0055 2.49815 14.9592 3.20076 15.6628Z" stroke="#884100" stroke-opacity="0.25"/>
</g>
</g>
</svg>
