<svg width="80" height="80" viewBox="0 0 80 80" fill="none" xmlns="http://www.w3.org/2000/svg">
<rect x="1.5" y="1.5" width="77" height="77" rx="11.5" fill="#0064B5" stroke="#005397" stroke-width="3"/>
<path d="M24.2001 31.4874L24.2 31.4874L24.2 31.4997C24.1999 34.3609 24.953 37.1718 26.3836 39.6497C27.8142 42.1277 29.8718 44.1854 32.3497 45.6161C34.8276 47.0467 37.6385 47.8 40.4997 47.8C43.361 47.8 46.1719 47.0469 48.6498 45.6163C51.1278 44.1857 53.1855 42.1281 54.6161 39.6502C56.0468 37.1723 56.8 34.3615 56.8 31.5002C56.8 28.639 56.0469 25.8281 54.6162 23.3502C53.1856 20.8723 51.1279 18.8146 48.65 17.384C46.2109 15.9757 43.4485 15.2234 40.6321 15.2005C37.8156 15.1777 35.0414 15.8849 32.5797 17.2534C30.118 18.6219 28.0529 20.6049 26.5858 23.0091C25.1186 25.4133 24.2995 28.1566 24.2082 30.9716L24.2081 30.9716L24.2078 30.9852L24.2001 31.4874ZM39.75 24.5498V23.7498C39.75 23.5509 39.829 23.3601 39.9697 23.2195C40.1103 23.0788 40.3011 22.9998 40.5 22.9998C40.6989 22.9998 40.8897 23.0788 41.0303 23.2195L41.596 22.6538L41.0303 23.2195C41.171 23.3601 41.25 23.5509 41.25 23.7498V24.5498H42.05H42.2864C42.9377 24.5723 43.5728 24.7599 44.1319 25.095C44.6904 25.4296 45.1548 25.9003 45.4818 26.463C45.5691 26.6325 45.5886 26.8292 45.536 27.0128C45.4825 27.2 45.3582 27.359 45.1895 27.4562C45.0207 27.5534 44.8208 27.5812 44.632 27.5337C44.4432 27.4862 44.2802 27.3671 44.1776 27.2016L44.1697 27.1889L44.1613 27.1764L44.0559 27.0199L44.0437 27.0017L44.0305 26.9843C43.5652 26.3687 42.8278 26.0232 42.0232 26.0502L41.25 26.0761V26.8498V29.9497V30.7505L42.0508 30.7497C43.0529 30.7488 44.016 31.1386 44.7353 31.8364C45.4546 32.5342 45.8734 33.485 45.9028 34.4867C45.9322 35.4884 45.5699 36.4621 44.8928 37.2009C44.2182 37.937 43.2841 38.3821 42.2878 38.4426L42.0273 38.45L41.25 38.4721V39.2497C41.25 39.4486 41.171 39.6393 41.0303 39.78L41.596 40.3457L41.0303 39.78C40.8943 39.916 40.7114 39.9944 40.5196 39.9994L40.3935 39.9918C40.2182 39.9667 40.0572 39.8803 39.9393 39.7475C39.8172 39.6101 39.7498 39.4326 39.75 39.2488L39.7507 38.4481H38.95H38.7136C38.0623 38.4257 37.4273 38.2383 36.8681 37.9035C36.3098 37.5691 35.8453 37.0987 35.5181 36.5363C35.4309 36.3668 35.4114 36.1702 35.464 35.9867C35.5175 35.7995 35.6418 35.6404 35.8105 35.5432C35.9793 35.446 36.1792 35.4182 36.368 35.4657C36.5568 35.5133 36.7198 35.6323 36.8224 35.7978L36.8303 35.8106L36.8387 35.823L36.9441 35.9796L36.9583 36.0006L36.9737 36.0207C37.2098 36.3275 37.5169 36.5722 37.8686 36.7338C38.2203 36.8955 38.6061 36.9692 38.9926 36.9486L39.75 36.9082V36.1497V33.0497V32.2497H38.95C37.9289 32.2497 36.9496 31.8441 36.2276 31.1221C35.5056 30.4001 35.1 29.4208 35.1 28.3997C35.1 27.3787 35.5056 26.3994 36.2276 25.6774C36.9497 24.9554 37.9289 24.5498 38.95 24.5498H39.75ZM42.05 32.2497H41.25V33.0497V36.1497V36.9497H42.05C42.6733 36.9497 43.271 36.7021 43.7117 36.2614C44.1524 35.8207 44.4 35.223 44.4 34.5997C44.4 33.9764 44.1524 33.3787 43.7117 32.938L43.146 33.5037L43.7117 32.938C43.271 32.4973 42.6733 32.2497 42.05 32.2497ZM39.75 26.8498V26.0498H38.95C38.3267 26.0498 37.729 26.2973 37.2883 26.738C36.8476 27.1788 36.6 27.7765 36.6 28.3997C36.6 29.023 36.8476 29.6207 37.2883 30.0614C37.729 30.5021 38.3267 30.7497 38.95 30.7497H39.75V29.9497V26.8498Z" fill="white" stroke="#005397" stroke-width="1.6"/>
<mask id="path-3-outside-1_315_1268" maskUnits="userSpaceOnUse" x="23" y="56" width="35" height="11" fill="black">
<rect fill="white" x="23" y="56" width="35" height="11"/>
<path d="M26.1 62.95C26.1 63.41 26.43 63.64 27.09 63.64C27.7567 63.64 28.09 63.4333 28.09 63.02C28.09 62.8 27.9767 62.62 27.75 62.48C27.5233 62.34 27.2467 62.2233 26.92 62.13C26.6 62.0367 26.2767 61.93 25.95 61.81C25.63 61.6833 25.3567 61.49 25.13 61.23C24.9033 60.9633 24.79 60.6333 24.79 60.24C24.79 58.5667 25.8667 57.73 28.02 57.73C28.8067 57.73 29.4 57.88 29.8 58.18C30.2067 58.4733 30.41 58.8833 30.41 59.41C30.41 59.6033 30.3833 59.79 30.33 59.97C30.2833 60.1433 30.2333 60.2667 30.18 60.34L30.1 60.46H28.33C28.4767 60.3067 28.55 60.1133 28.55 59.88C28.55 59.4467 28.2667 59.23 27.7 59.23C26.9867 59.23 26.63 59.4567 26.63 59.91C26.63 60.1367 26.7433 60.3167 26.97 60.45C27.1967 60.5833 27.47 60.69 27.79 60.77C28.1167 60.8433 28.4433 60.9367 28.77 61.05C29.0967 61.1633 29.3733 61.3533 29.6 61.62C29.8267 61.88 29.94 62.22 29.94 62.64C29.94 63.4867 29.6867 64.1167 29.18 64.53C28.6733 64.9367 27.8933 65.14 26.84 65.14C25.7867 65.14 25.0667 64.9533 24.68 64.58C24.3933 64.3 24.25 63.9133 24.25 63.42C24.25 63.2333 24.27 63.03 24.31 62.81L24.34 62.65H26.14L26.12 62.77C26.1067 62.8367 26.1 62.8967 26.1 62.95ZM34.1855 65L34.2455 63.43H32.5755L32.0855 65H30.1755L32.7455 57.8H36.0455L36.0855 65H34.1855ZM33.7755 59.55L32.9855 62.09H34.2955L34.4055 59.55H33.7755ZM39.5618 65.14C38.6085 65.14 37.9485 64.9333 37.5818 64.52C37.3285 64.2267 37.2018 63.8167 37.2018 63.29C37.2018 63.0633 37.2251 62.82 37.2718 62.56L37.6818 60.26C37.9818 58.5733 39.0651 57.73 40.9318 57.73C41.7051 57.73 42.2918 57.8967 42.6918 58.23C43.0918 58.5567 43.2918 59.0067 43.2918 59.58C43.2918 59.8467 43.2518 60.1133 43.1718 60.38C43.0985 60.64 43.0251 60.8333 42.9518 60.96L42.8418 61.16H41.0718C41.2918 60.9067 41.4018 60.5467 41.4018 60.08C41.4018 59.8333 41.3385 59.64 41.2118 59.5C41.0851 59.3533 40.8985 59.28 40.6518 59.28C39.9785 59.28 39.5785 59.6533 39.4518 60.4L39.1018 62.42C39.0685 62.5933 39.0518 62.7633 39.0518 62.93C39.0518 63.37 39.3151 63.59 39.8418 63.59C40.4751 63.59 40.8551 63.2333 40.9818 62.52H42.7818L42.7318 62.81C42.4651 64.3633 41.4085 65.14 39.5618 65.14ZM46.9883 65L47.0483 63.43H45.3783L44.8883 65H42.9783L45.5483 57.8H48.8483L48.8883 65H46.9883ZM46.5783 59.55L45.7883 62.09H47.0983L47.2083 59.55H46.5783ZM54.0045 57.8C54.7645 57.8 55.3045 57.9667 55.6245 58.3C55.8645 58.5533 55.9845 58.8733 55.9845 59.26C55.9845 59.3933 55.9712 59.5333 55.9445 59.68L55.8045 60.46C55.7245 60.8933 55.5845 61.2433 55.3845 61.51C55.1912 61.7767 54.9745 61.9667 54.7345 62.08L55.6445 65H53.6245L52.7845 62.31H52.1645L51.7545 65H49.8345L51.1045 57.8H54.0045ZM53.3745 59.36H52.6245L52.3645 61.1H53.0645C53.4179 61.1 53.6712 61.0167 53.8245 60.85C53.9779 60.6767 54.0545 60.45 54.0545 60.17C54.0545 59.63 53.8279 59.36 53.3745 59.36Z"/>
</mask>
<path d="M26.1 62.95C26.1 63.41 26.43 63.64 27.09 63.64C27.7567 63.64 28.09 63.4333 28.09 63.02C28.09 62.8 27.9767 62.62 27.75 62.48C27.5233 62.34 27.2467 62.2233 26.92 62.13C26.6 62.0367 26.2767 61.93 25.95 61.81C25.63 61.6833 25.3567 61.49 25.13 61.23C24.9033 60.9633 24.79 60.6333 24.79 60.24C24.79 58.5667 25.8667 57.73 28.02 57.73C28.8067 57.73 29.4 57.88 29.8 58.18C30.2067 58.4733 30.41 58.8833 30.41 59.41C30.41 59.6033 30.3833 59.79 30.33 59.97C30.2833 60.1433 30.2333 60.2667 30.18 60.34L30.1 60.46H28.33C28.4767 60.3067 28.55 60.1133 28.55 59.88C28.55 59.4467 28.2667 59.23 27.7 59.23C26.9867 59.23 26.63 59.4567 26.63 59.91C26.63 60.1367 26.7433 60.3167 26.97 60.45C27.1967 60.5833 27.47 60.69 27.79 60.77C28.1167 60.8433 28.4433 60.9367 28.77 61.05C29.0967 61.1633 29.3733 61.3533 29.6 61.62C29.8267 61.88 29.94 62.22 29.94 62.64C29.94 63.4867 29.6867 64.1167 29.18 64.53C28.6733 64.9367 27.8933 65.14 26.84 65.14C25.7867 65.14 25.0667 64.9533 24.68 64.58C24.3933 64.3 24.25 63.9133 24.25 63.42C24.25 63.2333 24.27 63.03 24.31 62.81L24.34 62.65H26.14L26.12 62.77C26.1067 62.8367 26.1 62.8967 26.1 62.95ZM34.1855 65L34.2455 63.43H32.5755L32.0855 65H30.1755L32.7455 57.8H36.0455L36.0855 65H34.1855ZM33.7755 59.55L32.9855 62.09H34.2955L34.4055 59.55H33.7755ZM39.5618 65.14C38.6085 65.14 37.9485 64.9333 37.5818 64.52C37.3285 64.2267 37.2018 63.8167 37.2018 63.29C37.2018 63.0633 37.2251 62.82 37.2718 62.56L37.6818 60.26C37.9818 58.5733 39.0651 57.73 40.9318 57.73C41.7051 57.73 42.2918 57.8967 42.6918 58.23C43.0918 58.5567 43.2918 59.0067 43.2918 59.58C43.2918 59.8467 43.2518 60.1133 43.1718 60.38C43.0985 60.64 43.0251 60.8333 42.9518 60.96L42.8418 61.16H41.0718C41.2918 60.9067 41.4018 60.5467 41.4018 60.08C41.4018 59.8333 41.3385 59.64 41.2118 59.5C41.0851 59.3533 40.8985 59.28 40.6518 59.28C39.9785 59.28 39.5785 59.6533 39.4518 60.4L39.1018 62.42C39.0685 62.5933 39.0518 62.7633 39.0518 62.93C39.0518 63.37 39.3151 63.59 39.8418 63.59C40.4751 63.59 40.8551 63.2333 40.9818 62.52H42.7818L42.7318 62.81C42.4651 64.3633 41.4085 65.14 39.5618 65.14ZM46.9883 65L47.0483 63.43H45.3783L44.8883 65H42.9783L45.5483 57.8H48.8483L48.8883 65H46.9883ZM46.5783 59.55L45.7883 62.09H47.0983L47.2083 59.55H46.5783ZM54.0045 57.8C54.7645 57.8 55.3045 57.9667 55.6245 58.3C55.8645 58.5533 55.9845 58.8733 55.9845 59.26C55.9845 59.3933 55.9712 59.5333 55.9445 59.68L55.8045 60.46C55.7245 60.8933 55.5845 61.2433 55.3845 61.51C55.1912 61.7767 54.9745 61.9667 54.7345 62.08L55.6445 65H53.6245L52.7845 62.31H52.1645L51.7545 65H49.8345L51.1045 57.8H54.0045ZM53.3745 59.36H52.6245L52.3645 61.1H53.0645C53.4179 61.1 53.6712 61.0167 53.8245 60.85C53.9779 60.6767 54.0545 60.45 54.0545 60.17C54.0545 59.63 53.8279 59.36 53.3745 59.36Z" fill="white"/>
<path d="M27.75 62.48L28.2755 61.6292L27.75 62.48ZM26.92 62.13L26.64 63.09L26.6453 63.0915L26.92 62.13ZM25.95 61.81L25.582 62.7398L25.5935 62.7444L25.6052 62.7487L25.95 61.81ZM25.13 61.23L24.368 61.8777L24.3762 61.8871L25.13 61.23ZM29.8 58.18L29.2 58.98L29.2074 58.9856L29.215 58.991L29.8 58.18ZM30.33 59.97L29.3712 59.6859L29.3676 59.6979L29.3644 59.71L30.33 59.97ZM30.18 60.34L29.3713 59.7518L29.3593 59.7683L29.348 59.7853L30.18 60.34ZM30.1 60.46V61.46H30.6352L30.932 61.0147L30.1 60.46ZM28.33 60.46L27.6074 59.7688L25.9897 61.46H28.33V60.46ZM26.97 60.45L26.463 61.3119L26.463 61.3119L26.97 60.45ZM27.79 60.77L27.5475 61.7401L27.5592 61.7431L27.571 61.7457L27.79 60.77ZM28.77 61.05L28.4422 61.9948L28.4422 61.9948L28.77 61.05ZM29.6 61.62L28.838 62.2677L28.8462 62.2771L29.6 61.62ZM29.18 64.53L29.806 65.3099L29.8121 65.3049L29.18 64.53ZM24.68 64.58L23.9812 65.2954L23.9854 65.2994L24.68 64.58ZM24.31 62.81L23.3271 62.6257L23.3261 62.6311L24.31 62.81ZM24.34 62.65V61.65H23.5101L23.3571 62.4657L24.34 62.65ZM26.14 62.65L27.1264 62.8144L27.3205 61.65H26.14V62.65ZM26.12 62.77L27.1006 62.9661L27.1037 62.9503L27.1064 62.9344L26.12 62.77ZM25.1 62.95C25.1 63.4527 25.3007 63.9569 25.7757 64.2879C26.185 64.5732 26.6746 64.64 27.09 64.64V62.64C26.9799 62.64 26.9145 62.6301 26.8832 62.6228C26.852 62.6156 26.8739 62.6155 26.9193 62.6471C26.9711 62.6832 27.0267 62.7424 27.064 62.8204C27.0989 62.8934 27.1 62.9455 27.1 62.95H25.1ZM27.09 64.64C27.4942 64.64 27.9665 64.5832 28.3669 64.3349C28.8464 64.0376 29.09 63.5502 29.09 63.02H27.09C27.09 62.9869 27.0975 62.9092 27.1467 62.8177C27.1972 62.7238 27.2649 62.6649 27.3131 62.6351C27.3545 62.6094 27.368 62.6131 27.3251 62.6219C27.2833 62.6306 27.2081 62.64 27.09 62.64V64.64ZM29.09 63.02C29.09 62.3761 28.7248 61.9067 28.2755 61.6292L27.2245 63.3308C27.24 63.3404 27.2012 63.3203 27.1588 63.2528C27.1114 63.1776 27.09 63.0917 27.09 63.02H29.09ZM28.2755 61.6292C27.9527 61.4298 27.5867 61.2805 27.1947 61.1685L26.6453 63.0915C26.9066 63.1662 27.094 63.2502 27.2245 63.3308L28.2755 61.6292ZM27.2 61.17C26.9028 61.0833 26.6011 60.9838 26.2948 60.8713L25.6052 62.7487C25.9523 62.8762 26.2972 62.99 26.64 63.09L27.2 61.17ZM26.318 60.8802C26.1469 60.8124 26.0057 60.7128 25.8838 60.5729L24.3762 61.8871C24.7076 62.2672 25.1131 62.5542 25.582 62.7398L26.318 60.8802ZM25.8919 60.5824C25.8381 60.519 25.79 60.4274 25.79 60.24H23.79C23.79 60.8393 23.9686 61.4077 24.3681 61.8776L25.8919 60.5824ZM25.79 60.24C25.79 59.6343 25.972 59.3329 26.2111 59.1471C26.4981 58.9241 27.0452 58.73 28.02 58.73V56.73C26.8415 56.73 25.7736 56.9542 24.9839 57.5679C24.1463 58.2188 23.79 59.1724 23.79 60.24H25.79ZM28.02 58.73C28.706 58.73 29.0471 58.8653 29.2 58.98L30.4 57.38C29.7529 56.8947 28.9074 56.73 28.02 56.73V58.73ZM29.215 58.991C29.346 59.0855 29.41 59.1856 29.41 59.41H31.41C31.41 58.5811 31.0673 57.8611 30.385 57.369L29.215 58.991ZM29.41 59.41C29.41 59.51 29.3964 59.6009 29.3712 59.6859L31.2888 60.2541C31.3703 59.9791 31.41 59.6966 31.41 59.41H29.41ZM29.3644 59.71C29.3566 59.7391 29.3496 59.7624 29.3436 59.7808C29.3375 59.7993 29.3331 59.8109 29.3308 59.8168C29.3283 59.8229 29.3291 59.82 29.3341 59.8105C29.3389 59.8014 29.3507 59.7801 29.3713 59.7518L30.9887 60.9282C31.1544 60.7003 31.2421 60.4288 31.2956 60.23L29.3644 59.71ZM29.348 59.7853L29.268 59.9053L30.932 61.0147L31.0121 60.8947L29.348 59.7853ZM30.1 59.46H28.33V61.46H30.1V59.46ZM29.0526 61.1512C29.3958 60.7925 29.55 60.3428 29.55 59.88H27.55C27.55 59.8909 27.5485 59.8756 27.56 59.8453C27.5721 59.8134 27.5906 59.7863 27.6074 59.7688L29.0526 61.1512ZM29.55 59.88C29.55 59.4265 29.3879 58.9368 28.945 58.5981C28.5528 58.2982 28.0826 58.23 27.7 58.23V60.23C27.7812 60.23 27.8188 60.2381 27.8249 60.2396C27.8296 60.2408 27.7879 60.2311 27.7301 60.1869C27.6668 60.1385 27.6131 60.0707 27.5802 59.9952C27.5652 59.9608 27.5575 59.9317 27.5537 59.9113C27.55 59.8913 27.55 59.88 27.55 59.88H29.55ZM27.7 58.23C27.2696 58.23 26.7757 58.2926 26.3611 58.556C25.8698 58.8683 25.63 59.3711 25.63 59.91H27.63C27.63 59.9293 27.6255 59.9949 27.5825 60.077C27.5378 60.1621 27.477 60.2166 27.4339 60.244C27.3975 60.2671 27.3896 60.2613 27.4391 60.2508C27.4878 60.2405 27.5715 60.23 27.7 60.23V58.23ZM25.63 59.91C25.63 60.5537 25.9891 61.0332 26.463 61.3119L27.477 59.5881C27.4694 59.5836 27.515 59.6087 27.5612 59.6822C27.6117 59.7623 27.63 59.8477 27.63 59.91H25.63ZM26.463 61.3119C26.79 61.5043 27.1571 61.6425 27.5475 61.7401L28.0325 59.7999C27.7829 59.7375 27.6033 59.6624 27.477 59.5881L26.463 61.3119ZM27.571 61.7457C27.8596 61.8105 28.15 61.8934 28.4422 61.9948L29.0978 60.1052C28.7366 59.98 28.3737 59.8761 28.009 59.7943L27.571 61.7457ZM28.4422 61.9948C28.5981 62.0488 28.7255 62.1352 28.8381 62.2676L30.3619 60.9724C30.0211 60.5714 29.5952 60.2778 29.0978 60.1052L28.4422 61.9948ZM28.8462 62.2771C28.8814 62.3175 28.94 62.4067 28.94 62.64H30.94C30.94 62.0333 30.7719 61.4425 30.3538 60.9629L28.8462 62.2771ZM28.94 62.64C28.94 63.2819 28.7566 63.5849 28.5479 63.7551L29.8121 65.3049C30.6168 64.6485 30.94 63.6915 30.94 62.64H28.94ZM28.5541 63.7501C28.3056 63.9495 27.797 64.14 26.84 64.14V66.14C27.9897 66.14 29.041 65.9238 29.8059 65.3099L28.5541 63.7501ZM26.84 64.14C25.8289 64.14 25.4622 63.9451 25.3746 63.8606L23.9854 65.2994C24.6712 65.9615 25.7445 66.14 26.84 66.14V64.14ZM25.3787 63.8646C25.3275 63.8146 25.25 63.7104 25.25 63.42H23.25C23.25 64.1163 23.4592 64.7854 23.9813 65.2954L25.3787 63.8646ZM25.25 63.42C25.25 63.3037 25.2626 63.161 25.2939 62.9889L23.3261 62.6311C23.2774 62.899 23.25 63.163 23.25 63.42H25.25ZM25.2929 62.9943L25.3229 62.8343L23.3571 62.4657L23.3271 62.6257L25.2929 62.9943ZM24.34 63.65H26.14V61.65H24.34V63.65ZM25.1536 62.4856L25.1336 62.6056L27.1064 62.9344L27.1264 62.8144L25.1536 62.4856ZM25.1394 62.5739C25.1165 62.6885 25.1 62.8158 25.1 62.95H27.1C27.1 62.9647 27.0991 62.9735 27.0989 62.9754C27.0987 62.9775 27.0989 62.9746 27.1006 62.9661L25.1394 62.5739ZM34.1855 65L33.1863 64.9618L33.1466 66H34.1855V65ZM34.2455 63.43L35.2448 63.4682L35.2845 62.43H34.2455V63.43ZM32.5755 63.43V62.43H31.8401L31.621 63.1321L32.5755 63.43ZM32.0855 65V66H32.821L33.0401 65.2979L32.0855 65ZM30.1755 65L29.2337 64.6638L28.7568 66H30.1755V65ZM32.7455 57.8V56.8H32.0407L31.8037 57.4638L32.7455 57.8ZM36.0455 57.8L37.0455 57.7944L37.04 56.8H36.0455V57.8ZM36.0855 65V66H37.0911L37.0855 64.9944L36.0855 65ZM33.7755 59.55V58.55H33.0393L32.8207 59.253L33.7755 59.55ZM32.9855 62.09L32.0307 61.793L31.6273 63.09H32.9855V62.09ZM34.2955 62.09V63.09H35.2532L35.2946 62.1333L34.2955 62.09ZM34.4055 59.55L35.4046 59.5933L35.4498 58.55H34.4055V59.55ZM35.1848 65.0382L35.2448 63.4682L33.2463 63.3918L33.1863 64.9618L35.1848 65.0382ZM34.2455 62.43H32.5755V64.43H34.2455V62.43ZM31.621 63.1321L31.131 64.7021L33.0401 65.2979L33.5301 63.7279L31.621 63.1321ZM32.0855 64H30.1755V66H32.0855V64ZM31.1173 65.3362L33.6873 58.1362L31.8037 57.4638L29.2337 64.6638L31.1173 65.3362ZM32.7455 58.8H36.0455V56.8H32.7455V58.8ZM35.0456 57.8056L35.0856 65.0056L37.0855 64.9944L37.0455 57.7944L35.0456 57.8056ZM36.0855 64H34.1855V66H36.0855V64ZM32.8207 59.253L32.0307 61.793L33.9404 62.387L34.7304 59.847L32.8207 59.253ZM32.9855 63.09H34.2955V61.09H32.9855V63.09ZM35.2946 62.1333L35.4046 59.5933L33.4065 59.5067L33.2965 62.0467L35.2946 62.1333ZM34.4055 58.55H33.7755V60.55H34.4055V58.55ZM37.5818 64.52L36.8249 65.1737L36.8337 65.1836L37.5818 64.52ZM37.2718 62.56L38.2561 62.7367L38.2563 62.7355L37.2718 62.56ZM37.6818 60.26L38.6663 60.4355L38.6663 60.4351L37.6818 60.26ZM42.6918 58.23L42.0516 58.9983L42.0593 59.0045L42.6918 58.23ZM43.1718 60.38L42.214 60.0927L42.2116 60.1006L42.2093 60.1085L43.1718 60.38ZM42.9518 60.96L42.0864 60.459L42.0809 60.4685L42.0756 60.4781L42.9518 60.96ZM42.8418 61.16V62.16H43.4331L43.718 61.6419L42.8418 61.16ZM41.0718 61.16L40.3168 60.5043L38.8789 62.16H41.0718V61.16ZM41.2118 59.5L40.455 60.1536L40.4625 60.1624L40.4703 60.1709L41.2118 59.5ZM39.4518 60.4L40.4371 60.5707L40.4377 60.5673L39.4518 60.4ZM39.1018 62.42L40.0838 62.6088L40.0855 62.5998L40.0871 62.5907L39.1018 62.42ZM40.9818 62.52V61.52H40.1437L39.9972 62.3452L40.9818 62.52ZM42.7818 62.52L43.7673 62.6899L43.969 61.52H42.7818V62.52ZM42.7318 62.81L41.7463 62.6401L41.7462 62.6408L42.7318 62.81ZM39.5618 64.14C38.6977 64.14 38.4068 63.943 38.3299 63.8564L36.8337 65.1836C37.4902 65.9236 38.5192 66.14 39.5618 66.14V64.14ZM38.3386 63.8664C38.2907 63.8109 38.2018 63.6632 38.2018 63.29H36.2018C36.2018 63.9702 36.3662 64.6424 36.825 65.1736L38.3386 63.8664ZM38.2018 63.29C38.2018 63.1313 38.2182 62.9477 38.2561 62.7367L36.2875 62.3833C36.2321 62.6923 36.2018 62.9953 36.2018 63.29H38.2018ZM38.2563 62.7355L38.6663 60.4355L36.6973 60.0845L36.2873 62.3845L38.2563 62.7355ZM38.6663 60.4351C38.7842 59.7724 39.032 59.3863 39.3336 59.1516C39.6459 58.9084 40.1417 58.73 40.9318 58.73V56.73C39.8552 56.73 38.876 56.9732 38.105 57.5734C37.3232 58.182 36.8794 59.0609 36.6972 60.0849L38.6663 60.4351ZM40.9318 58.73C41.5809 58.73 41.9007 58.8724 42.0516 58.9982L43.332 57.4618C42.6829 56.9209 41.8293 56.73 40.9318 56.73V58.73ZM42.0593 59.0045C42.1991 59.1188 42.2918 59.2694 42.2918 59.58H44.2918C44.2918 58.7439 43.9844 57.9946 43.3243 57.4555L42.0593 59.0045ZM42.2918 59.58C42.2918 59.7451 42.2672 59.9151 42.214 60.0927L44.1296 60.6673C44.2364 60.3116 44.2918 59.9482 44.2918 59.58H42.2918ZM42.2093 60.1085C42.1784 60.2184 42.1505 60.3028 42.1268 60.3653C42.1151 60.3962 42.1053 60.4194 42.0977 60.4358C42.0901 60.4526 42.086 60.4595 42.0864 60.459L43.8172 61.461C43.9537 61.2253 44.0539 60.9363 44.1342 60.6515L42.2093 60.1085ZM42.0756 60.4781L41.9656 60.6781L43.718 61.6419L43.828 61.4419L42.0756 60.4781ZM42.8418 60.16H41.0718V62.16H42.8418V60.16ZM41.8268 61.8157C42.2571 61.3203 42.4018 60.6937 42.4018 60.08H40.4018C40.4018 60.3996 40.3265 60.4931 40.3168 60.5043L41.8268 61.8157ZM42.4018 60.08C42.4018 59.6633 42.2921 59.2035 41.9533 58.8291L40.4703 60.1709C40.4325 60.1291 40.4125 60.0873 40.404 60.0613C40.3966 60.0388 40.4018 60.0407 40.4018 60.08H42.4018ZM41.9686 58.8464C41.6026 58.4225 41.1038 58.28 40.6518 58.28V60.28C40.6778 60.28 40.6577 60.284 40.6111 60.2658C40.559 60.2453 40.5014 60.2074 40.455 60.1536L41.9686 58.8464ZM40.6518 58.28C40.1232 58.28 39.5901 58.4317 39.1645 58.8289C38.7528 59.2132 38.5521 59.7248 38.4659 60.2327L40.4377 60.5673C40.4782 60.3285 40.5408 60.2801 40.5291 60.2911C40.5234 60.2964 40.5187 60.2972 40.5266 60.2945C40.5376 60.2907 40.5751 60.28 40.6518 60.28V58.28ZM38.4665 60.2293L38.1165 62.2493L40.0871 62.5907L40.4371 60.5707L38.4665 60.2293ZM38.1198 62.2312C38.0752 62.4631 38.0518 62.6963 38.0518 62.93H40.0518C40.0518 62.8303 40.0617 62.7236 40.0838 62.6088L38.1198 62.2312ZM38.0518 62.93C38.0518 63.3561 38.1879 63.8413 38.6082 64.1924C38.994 64.5148 39.4637 64.59 39.8418 64.59V62.59C39.6932 62.59 39.7679 62.5552 39.8904 62.6576C39.9565 62.7128 40.0037 62.7822 40.03 62.8482C40.0538 62.908 40.0518 62.9423 40.0518 62.93H38.0518ZM39.8418 64.59C40.3549 64.59 40.8725 64.4399 41.2862 64.0516C41.6843 63.6779 41.8797 63.1828 41.9664 62.6948L39.9972 62.3452C39.9572 62.5705 39.8993 62.6104 39.9174 62.5934C39.9209 62.5901 39.9256 62.5865 39.9308 62.5833C39.9359 62.5802 39.9387 62.5794 39.9373 62.5798C39.9345 62.5808 39.9068 62.59 39.8418 62.59V64.59ZM40.9818 63.52H42.7818V61.52H40.9818V63.52ZM41.7963 62.3501L41.7463 62.6401L43.7173 62.9799L43.7673 62.6899L41.7963 62.3501ZM41.7462 62.6408C41.6473 63.2171 41.426 63.5467 41.1471 63.7517C40.8478 63.9717 40.3565 64.14 39.5618 64.14V66.14C40.6137 66.14 41.5741 65.92 42.3315 65.3633C43.1093 64.7916 43.5497 63.9562 43.7174 62.9792L41.7462 62.6408ZM46.9883 65L45.989 64.9618L45.9493 66H46.9883V65ZM47.0483 63.43L48.0476 63.4682L48.0872 62.43H47.0483V63.43ZM45.3783 63.43V62.43H44.6428L44.4237 63.1321L45.3783 63.43ZM44.8883 65V66H45.6238L45.8429 65.2979L44.8883 65ZM42.9783 65L42.0365 64.6638L41.5595 66H42.9783V65ZM45.5483 57.8V56.8H44.8434L44.6065 57.4638L45.5483 57.8ZM48.8483 57.8L49.8483 57.7944L49.8427 56.8H48.8483V57.8ZM48.8883 65V66H49.8939L49.8883 64.9944L48.8883 65ZM46.5783 59.55V58.55H45.8421L45.6234 59.253L46.5783 59.55ZM45.7883 62.09L44.8334 61.793L44.43 63.09H45.7883V62.09ZM47.0983 62.09V63.09H48.0559L48.0973 62.1333L47.0983 62.09ZM47.2083 59.55L48.2073 59.5933L48.2525 58.55H47.2083V59.55ZM47.9876 65.0382L48.0476 63.4682L46.049 63.3918L45.989 64.9618L47.9876 65.0382ZM47.0483 62.43H45.3783V64.43H47.0483V62.43ZM44.4237 63.1321L43.9337 64.7021L45.8429 65.2979L46.3329 63.7279L44.4237 63.1321ZM44.8883 64H42.9783V66H44.8883V64ZM43.9201 65.3362L46.4901 58.1362L44.6065 57.4638L42.0365 64.6638L43.9201 65.3362ZM45.5483 58.8H48.8483V56.8H45.5483V58.8ZM47.8483 57.8056L47.8883 65.0056L49.8883 64.9944L49.8483 57.7944L47.8483 57.8056ZM48.8883 64H46.9883V66H48.8883V64ZM45.6234 59.253L44.8334 61.793L46.7432 62.387L47.5332 59.847L45.6234 59.253ZM45.7883 63.09H47.0983V61.09H45.7883V63.09ZM48.0973 62.1333L48.2073 59.5933L46.2092 59.5067L46.0992 62.0467L48.0973 62.1333ZM47.2083 58.55H46.5783V60.55H47.2083V58.55ZM55.6245 58.3L56.3505 57.6122L56.3459 57.6075L55.6245 58.3ZM55.9445 59.68L54.9607 59.5011L54.9603 59.5033L55.9445 59.68ZM55.8045 60.46L56.7879 60.6415L56.7888 60.6367L55.8045 60.46ZM55.3845 61.51L54.5845 60.91L54.5797 60.9165L54.5749 60.923L55.3845 61.51ZM54.7345 62.08L54.3075 61.1758L53.521 61.5471L53.7798 62.3775L54.7345 62.08ZM55.6445 65V66H57.0036L56.5992 64.7025L55.6445 65ZM53.6245 65L52.67 65.2981L52.8892 66H53.6245V65ZM52.7845 62.31L53.7391 62.0119L53.5199 61.31H52.7845V62.31ZM52.1645 62.31V61.31H51.3054L51.1759 62.1593L52.1645 62.31ZM51.7545 65V66H52.6137L52.7431 65.1507L51.7545 65ZM49.8345 65L48.8497 64.8263L48.6427 66H49.8345V65ZM51.1045 57.8V56.8H50.2655L50.1197 57.6263L51.1045 57.8ZM52.6245 59.36V58.36H51.7629L51.6355 59.2122L52.6245 59.36ZM52.3645 61.1L51.3755 60.9522L51.204 62.1H52.3645V61.1ZM53.8245 60.85L54.5605 61.5271L54.5671 61.5199L54.5735 61.5126L53.8245 60.85ZM54.0045 58.8C54.6602 58.8 54.8628 58.9506 54.9031 58.9925L56.3459 57.6075C55.7462 56.9828 54.8688 56.8 54.0045 56.8V58.8ZM54.8986 58.9877C54.943 59.0346 54.9845 59.0991 54.9845 59.26H56.9845C56.9845 58.6475 56.7861 58.0721 56.3505 57.6123L54.8986 58.9877ZM54.9845 59.26C54.9845 59.3268 54.9778 59.4067 54.9607 59.5011L56.9284 59.8589C56.9646 59.66 56.9845 59.4599 56.9845 59.26H54.9845ZM54.9603 59.5033L54.8203 60.2833L56.7888 60.6367L56.9288 59.8567L54.9603 59.5033ZM54.8211 60.2785C54.7605 60.6068 54.6671 60.8 54.5845 60.91L56.1845 62.11C56.502 61.6867 56.6885 61.1798 56.7879 60.6415L54.8211 60.2785ZM54.5749 60.923C54.4569 61.0858 54.3628 61.1496 54.3075 61.1758L55.1615 62.9842C55.5862 62.7837 55.9255 62.4675 56.1941 62.097L54.5749 60.923ZM53.7798 62.3775L54.6898 65.2975L56.5992 64.7025L55.6892 61.7825L53.7798 62.3775ZM55.6445 64H53.6245V66H55.6445V64ZM54.5791 64.7019L53.7391 62.0119L51.83 62.6081L52.67 65.2981L54.5791 64.7019ZM52.7845 61.31H52.1645V63.31H52.7845V61.31ZM51.1759 62.1593L50.7659 64.8493L52.7431 65.1507L53.1531 62.4607L51.1759 62.1593ZM51.7545 64H49.8345V66H51.7545V64ZM50.8193 65.1737L52.0893 57.9737L50.1197 57.6263L48.8497 64.8263L50.8193 65.1737ZM51.1045 58.8H54.0045V56.8H51.1045V58.8ZM53.3745 58.36H52.6245V60.36H53.3745V58.36ZM51.6355 59.2122L51.3755 60.9522L53.3536 61.2478L53.6136 59.5078L51.6355 59.2122ZM52.3645 62.1H53.0645V60.1H52.3645V62.1ZM53.0645 62.1C53.5432 62.1 54.1338 61.9908 54.5605 61.5271L53.0886 60.1729C53.1159 60.1433 53.1437 60.1219 53.1671 60.1075C53.1898 60.0935 53.2049 60.0883 53.2071 60.0876C53.2089 60.087 53.1992 60.0903 53.1747 60.0937C53.1502 60.097 53.1141 60.1 53.0645 60.1V62.1ZM54.5735 61.5126C54.9209 61.1198 55.0545 60.6404 55.0545 60.17H53.0545C53.0545 60.2192 53.0478 60.2353 53.0498 60.2296C53.0507 60.2267 53.0533 60.2202 53.0583 60.2115C53.0633 60.2028 53.0693 60.1945 53.0755 60.1874L54.5735 61.5126ZM55.0545 60.17C55.0545 59.7844 54.9772 59.3088 54.6504 58.9195C54.2955 58.4967 53.8057 58.36 53.3745 58.36V60.36C53.3907 60.36 53.3598 60.3626 53.303 60.34C53.2401 60.315 53.1726 60.2697 53.1186 60.2055C53.0678 60.1449 53.0518 60.0949 53.049 60.0851C53.047 60.0779 53.0545 60.1017 53.0545 60.17H55.0545Z" fill="#005397" mask="url(#path-3-outside-1_315_1268)"/>
</svg>
