<svg xmlns="http://www.w3.org/2000/svg" width="31" height="31" viewBox="0 0 31 31" fill="none">
                        <rect x="0.5" y="0.5" width="30" height="30" rx="2.5" fill="#D40000" stroke="#930000" />
                        <path
                            d="M11 12.5598V12.1698C11 10.5603 11 9.75554 11.5175 9.30704C12.035 8.85854 12.8307 8.97254 14.4245 9.19979L17.636 9.65879C19.4787 9.92204 20.3998 10.0533 20.9495 10.6878C21.5 11.3223 21.5 12.253 21.5 14.1138V18.3078C21.5 20.1685 21.5 21.0993 20.9495 21.7338C20.3998 22.3683 19.4788 22.4995 17.6367 22.7628L14.4245 23.2218C12.8307 23.449 12.0343 23.563 11.5175 23.1145C11 22.666 11 21.8613 11 20.2518V20.0103"
                            stroke="white" stroke-width="2" />
                        <path
                            d="M17.75 16.2108L18.335 15.7421L18.71 16.2108L18.335 16.6796L17.75 16.2108ZM8.75 16.9608C8.55109 16.9608 8.36032 16.8818 8.21967 16.7411C8.07902 16.6005 8 16.4097 8 16.2108C8 16.0119 8.07902 15.8211 8.21967 15.6805C8.36032 15.5398 8.55109 15.4608 8.75 15.4608V16.9608ZM15.335 11.9921L18.335 15.7421L17.165 16.6796L14.165 12.9296L15.335 11.9921ZM18.335 16.6796L15.335 20.4296L14.165 19.4921L17.165 15.7421L18.335 16.6796ZM17.75 16.9608H8.75V15.4608H17.75V16.9608Z"
                            fill="white" />
                    </svg>